<?xml version="1.0" standalone="no"?>
<!DOCTYPE svg PUBLIC "-//W3C//DTD SVG 20010904//EN"
 "http://www.w3.org/TR/2001/REC-SVG-20010904/DTD/svg10.dtd">
<svg version="1.0" xmlns="http://www.w3.org/2000/svg"
 width="950.000000pt" height="660.000000pt" viewBox="0 0 950.000000 660.000000"
 preserveAspectRatio="xMidYMid meet">

<g transform="translate(0.000000,660.000000) scale(0.100000,-0.100000)"
fill="#000000" stroke="none">
<path d="M0 3300 l0 -3300 2214 0 2213 0 6 91 7 92 57 53 c32 29 64 51 70 49
7 -2 12 -1 12 3 -3 19 2 25 11 12 8 -13 10 -12 10 3 0 10 5 15 10 12 6 -3 10
0 10 7 0 9 3 9 10 -2 6 -10 10 -11 10 -2 0 6 11 12 24 12 14 0 28 5 31 10 3 6
21 10 38 9 l32 0 -33 -16 c-25 -13 -31 -21 -26 -37 3 -12 2 -16 -3 -10 -15 21
-50 25 -64 7 -8 -9 -9 -14 -2 -10 7 5 7 -3 -3 -22 -11 -21 -20 -28 -34 -24
-11 3 -20 1 -20 -5 0 -6 -7 -18 -16 -27 -14 -13 -19 -14 -25 -3 -6 10 -11 10
-20 1 -9 -9 -8 -16 5 -29 21 -20 14 -29 -11 -16 -17 9 -18 5 -15 -68 l3 -79
-28 -4 c-15 -2 249 -5 587 -5 338 -1 610 2 603 6 -6 4 -43 7 -82 6 -39 0 -71
3 -71 7 0 13 67 22 104 15 45 -9 65 0 60 27 -2 12 -2 16 2 9 3 -6 10 -10 15
-6 5 3 9 -4 9 -15 0 -17 6 -21 30 -21 40 0 39 -15 -2 -18 -59 -5 -42 -12 28
-12 47 0 64 3 54 10 -13 8 -13 11 2 22 9 7 20 34 23 60 6 40 4 47 -12 51 -16
4 -16 5 0 6 18 1 25 21 6 21 -5 0 -7 5 -4 10 3 6 2 10 -4 10 -5 0 -12 -4 -15
-9 -3 -5 -16 -7 -28 -3 -16 4 -19 2 -13 -9 7 -12 6 -12 -9 0 -15 13 -19 13
-27 0 -15 -23 -10 -29 24 -30 21 0 26 -3 15 -7 -9 -4 -54 -5 -100 -3 -58 3
-75 6 -58 11 14 5 18 8 9 9 -9 1 -22 8 -29 16 -9 11 -15 13 -20 5 -5 -8 -9 -7
-13 4 -7 19 32 68 87 107 37 28 44 29 153 29 155 0 175 -13 115 -76 -16 -17
-19 -34 -18 -90 1 -60 -1 -69 -16 -68 -13 1 -18 -6 -18 -24 0 -13 -8 -31 -18
-38 -14 -11 5 -13 129 -14 l146 0 5 43 c3 23 24 80 47 127 23 47 51 119 62
160 12 41 27 87 36 102 8 16 11 28 8 28 -18 0 85 168 134 219 70 73 107 85
251 87 108 1 131 -3 110 -16 -9 -5 -5 -10 11 -15 13 -4 27 -13 32 -19 4 -7 9
-3 13 12 11 39 30 26 26 -18 -5 -48 4 -90 19 -90 6 0 17 -7 25 -15 8 -8 21
-12 29 -9 8 4 15 1 15 -5 0 -6 -8 -11 -17 -12 -14 0 -15 -2 -3 -6 8 -4 21 -12
28 -20 7 -7 20 -13 28 -13 8 0 13 -4 10 -9 -8 -12 43 -44 60 -37 8 3 14 1 14
-4 0 -20 29 -9 36 12 l7 23 8 -23 c5 -12 13 -22 19 -22 5 0 10 -7 10 -16 0
-15 2 -15 26 1 25 16 26 16 22 -2 -2 -13 -12 -18 -33 -17 -39 1 -47 -13 -29
-49 14 -26 14 -30 -4 -45 -10 -9 -21 -24 -25 -32 -5 -13 -6 -13 -6 0 -1 10
-10 5 -26 -15 l-25 -30 6 30 c4 17 11 34 15 40 11 11 12 45 2 46 -5 0 -19 2
-33 5 -17 3 -21 1 -11 -5 10 -6 10 -10 1 -16 -7 -4 -19 0 -28 9 -13 12 -13 18
-4 28 7 7 12 17 12 23 0 5 -5 2 -11 -7 -5 -10 -19 -18 -29 -18 -21 0 -27 -24
-10 -35 8 -5 7 -12 -2 -22 -11 -14 -13 -13 -19 8 -6 23 -7 23 -22 -11 -10 -22
-16 -28 -17 -17 0 11 -6 17 -12 14 -7 -2 -12 -14 -10 -27 3 -15 -1 -21 -10
-18 -7 3 -12 15 -10 28 1 12 -3 30 -10 38 -11 13 -9 14 16 8 26 -6 27 -6 12 9
-9 9 -16 23 -16 31 0 8 -5 14 -11 14 -6 0 -9 -7 -5 -15 4 -11 -1 -14 -18 -13
-14 1 -22 7 -19 15 4 9 -1 9 -21 0 -28 -13 -34 -27 -12 -27 8 0 17 -7 20 -16
3 -8 10 -12 16 -9 6 3 13 -1 17 -10 7 -19 -13 -36 -34 -28 -15 6 -18 -13 -3
-22 6 -3 10 -18 10 -33 0 -20 3 -23 9 -13 7 10 9 7 8 -12 -3 -44 -33 -34 -52
18 -10 24 -26 47 -36 50 -11 4 -19 10 -19 15 0 5 -12 7 -27 6 -22 -3 -35 5
-61 35 -19 22 -40 39 -48 39 -8 0 -14 10 -14 25 0 14 -6 25 -13 25 -20 0 -21
-116 -2 -124 8 -3 15 -10 15 -15 0 -6 -6 -8 -14 -5 -11 4 -13 -1 -6 -29 4 -19
10 -40 14 -46 4 -6 0 -24 -9 -40 -19 -37 -19 -42 -1 -35 16 6 31 -53 20 -80
-4 -10 -1 -16 7 -16 10 0 11 -2 2 -8 -6 -4 -9 -19 -6 -35 l5 -27 168 0 c152 0
169 2 173 18 4 16 5 16 6 0 2 -26 28 -22 34 5 15 69 38 142 48 151 8 8 10 7 7
-4 -3 -8 -1 -24 5 -34 7 -15 6 -18 -5 -14 -9 4 -14 -1 -14 -13 0 -11 4 -19 8
-19 4 0 8 -5 8 -11 0 -15 -26 -39 -34 -32 -3 4 -6 -6 -6 -20 l0 -27 1270 0
1270 0 0 3300 0 3300 -4750 0 -4750 0 0 -3300z m754 3224 c22 -8 21 -60 -1
-73 -20 -11 -18 -12 47 -14 l45 -2 3 -42 c2 -24 6 -43 11 -43 4 0 17 20 29 45
19 40 25 45 55 45 19 0 37 -3 40 -7 4 -3 -17 -51 -46 -105 l-52 -99 -45 3 -45
3 -13 70 c-23 126 -24 127 -41 25 l-16 -95 -34 -3 c-18 -2 -37 0 -41 5 -4 4 0
51 9 103 13 73 21 96 34 98 15 3 15 5 2 18 -37 38 7 88 59 68z m880 0 c21 -8
21 -63 1 -70 -10 -4 -12 -10 -6 -18 5 -7 2 -48 -8 -106 l-17 -95 -33 -3 c-19
-2 -37 0 -41 5 -4 4 0 50 9 102 13 74 21 96 36 101 17 6 17 7 2 13 -21 8 -22
41 -1 61 16 17 33 20 58 10z m2370 0 c21 -8 21 -60 0 -72 -11 -6 -13 -12 -6
-16 7 -4 9 -20 5 -39 l-6 -32 26 31 c15 17 40 37 57 44 60 25 129 -9 131 -65
0 -20 0 -20 9 0 4 11 20 31 35 45 24 23 34 25 107 23 44 -1 83 -4 85 -7 3 -3
-3 -49 -13 -103 l-19 -98 -78 -2 c-88 -3 -114 6 -123 43 -6 25 -7 25 -21 5
-17 -25 -46 -42 -90 -52 -43 -9 -95 24 -104 66 -6 30 -6 30 -12 5 -3 -14 -8
-34 -9 -45 -2 -15 -12 -21 -37 -23 -18 -2 -37 0 -41 5 -4 4 0 50 9 102 13 74
21 96 36 101 17 6 17 7 2 13 -21 8 -22 41 -1 61 16 17 33 20 58 10z m4823 -11
c-20 -2 -52 -2 -70 0 -17 2 0 4 38 4 39 0 53 -2 32 -4z m-6952 -38 c-1 -16 -4
-50 -8 -75 -4 -28 -3 -37 2 -25 5 11 21 31 36 45 25 23 33 25 108 22 45 -2 83
-5 85 -7 3 -2 -4 -48 -14 -102 l-19 -98 -83 -2 c-97 -3 -121 11 -123 75 -1 34
-2 33 -12 -18 l-12 -55 -83 -2 c-72 -3 -85 0 -103 18 -18 18 -21 30 -17 76 4
45 11 60 37 86 26 27 38 32 76 31 41 -1 46 2 52 25 9 40 12 42 46 39 28 -3 32
-7 32 -33z m470 -17 c-3 -29 -14 -91 -23 -138 l-17 -85 -83 -2 c-72 -3 -85 0
-103 18 -18 18 -21 30 -17 76 4 45 11 60 37 86 26 27 39 32 76 31 25 0 45 3
45 7 0 4 4 19 10 33 8 21 16 26 46 26 l36 0 -7 -52z m2430 17 c-1 -16 -4 -50
-8 -75 l-8 -45 21 33 c61 98 211 66 197 -42 -7 -50 -33 -86 -81 -109 -41 -21
-70 -18 -109 14 -20 15 -27 30 -28 57 -1 33 -2 32 -12 -18 l-12 -55 -83 -2
c-72 -3 -85 0 -103 18 -18 18 -21 30 -17 76 4 45 11 60 37 86 26 27 38 32 76
31 41 -1 46 2 52 25 9 40 12 42 46 39 28 -3 32 -7 32 -33z m1212 -12 c-3 -27
-13 -90 -23 -141 l-17 -92 -56 1 c-31 1 -60 0 -66 -1 -44 -10 -84 24 -86 73
-1 26 -4 22 -12 -20 l-10 -53 -39 0 -39 0 7 70 c6 67 6 70 -15 70 -21 0 -23
-4 -38 -90 -8 -42 -11 -45 -42 -48 -18 -2 -37 0 -41 5 -8 8 20 180 32 199 9
13 56 16 63 4 3 -5 19 -3 35 3 41 16 81 -6 97 -53 7 -19 12 -28 12 -19 1 8 15
28 32 45 24 23 39 29 75 29 24 0 44 3 44 7 0 4 4 18 10 32 8 21 16 26 46 26
l37 0 -6 -47z m2679 22 c-169 -69 -291 -219 -346 -426 -13 -49 -18 -59 -14
-30 24 175 163 375 313 449 35 18 74 32 85 32 12 0 -6 -11 -38 -25z m338 -13
c132 -72 267 -259 291 -407 4 -24 -7 -3 -25 50 -66 190 -166 303 -327 371 -44
19 -50 23 -23 18 19 -3 57 -18 84 -32z m-3765 17 c34 -12 51 -35 51 -70 l0
-22 25 23 c23 21 35 24 108 25 l82 0 -1 -35 c-1 -19 -7 -68 -13 -108 l-13 -72
-58 1 c-32 1 -62 -1 -66 -4 -5 -3 -23 1 -41 8 -23 10 -34 23 -42 50 -5 20 -7
43 -4 52 6 14 4 14 -18 0 -13 -9 -40 -17 -59 -19 -35 -4 -38 -9 -56 -75 -4
-14 -70 -18 -78 -5 -3 5 4 57 14 117 11 60 20 112 20 117 0 25 95 36 149 17z
m-4957 -4 c2 -3 -2 -41 -10 -86 -11 -61 -12 -83 -3 -92 29 -29 54 20 76 146 6
35 8 37 45 37 22 0 40 -4 40 -9 0 -24 -33 -178 -41 -194 -17 -30 -71 -57 -117
-57 -55 0 -92 33 -92 83 0 32 16 138 25 165 4 11 66 18 77 7z m2347 -108 c28
-152 29 -147 -18 -147 -30 0 -40 4 -44 20 -4 16 -14 20 -45 20 -32 0 -42 -4
-47 -20 -5 -16 -15 -20 -46 -20 -44 0 -47 9 -20 54 10 17 39 70 65 119 l47 87
43 0 44 0 21 -113z m6166 73 c13 -26 19 -29 35 -20 21 11 27 30 10 30 -5 0
-10 4 -10 10 0 9 59 3 70 -7 3 -3 -8 -16 -25 -29 -28 -23 -29 -24 -7 -24 13 0
22 6 22 15 0 8 13 21 30 30 33 17 44 19 35 6 -3 -5 -1 -12 5 -16 29 -18 -8
-83 -39 -69 -42 18 -153 33 -171 24 -27 -14 -38 -12 -43 8 -4 13 -5 11 -6 -5
-1 -28 -9 -29 -27 -5 -12 15 -13 15 -7 -5 4 -18 0 -23 -23 -29 -16 -3 -35 -14
-42 -23 -11 -14 -14 -14 -22 -1 -13 20 -12 67 1 75 5 4 18 0 27 -7 36 -31 41
-30 31 4 -5 18 -9 34 -9 35 0 10 39 1 43 -9 4 -8 6 -7 6 3 2 33 31 30 45 -4 8
-18 15 -27 15 -20 2 24 21 63 30 63 6 0 18 -14 26 -30z m-8170 -25 c28 -27 29
-49 12 -135 -12 -54 -12 -55 -51 -58 l-38 -3 7 58 c4 32 8 62 8 68 1 5 -8 11
-20 13 -24 4 -27 -3 -41 -88 -7 -40 -11 -45 -36 -48 -53 -6 -54 -3 -37 105
l17 98 52 1 c29 1 56 5 59 8 14 13 45 5 68 -19z m532 3 c8 -7 20 -24 26 -38
10 -25 10 -25 16 10 6 34 7 35 56 36 28 1 58 5 67 9 12 5 20 2 24 -8 5 -14 9
-14 40 0 28 14 40 14 73 4 60 -17 84 -81 31 -81 l-20 0 20 -20 c20 -20 26 -56
12 -76 -27 -41 -121 -46 -158 -9 -32 32 -27 48 17 55 30 5 32 7 12 13 -12 5
-25 16 -28 26 -4 13 -12 17 -30 13 -33 -6 -42 -19 -52 -77 -8 -47 -10 -50 -42
-53 -45 -5 -52 5 -40 57 11 51 4 69 -9 20 -17 -69 -119 -103 -176 -58 -52 41
-24 153 47 185 35 16 90 12 114 -8z m1703 9 c21 -11 31 -11 62 1 31 12 43 13
68 2 36 -15 45 -42 36 -113 -13 -96 -14 -98 -55 -95 -40 3 -40 5 -27 91 7 43
5 47 -13 47 -25 0 -31 -10 -45 -79 -11 -55 -12 -56 -48 -59 -43 -4 -45 3 -29
86 7 34 6 45 -6 49 -23 9 -37 -13 -48 -75 -10 -55 -12 -57 -44 -60 -18 -2 -37
0 -41 5 -4 4 0 51 9 103 l17 95 47 1 c26 1 50 4 54 8 10 10 36 7 63 -7z m422
-11 c5 -8 8 -7 8 2 0 10 20 12 83 10 81 -3 82 -3 79 -28 -2 -14 -22 -44 -45
-67 l-41 -43 33 0 c30 0 32 -2 29 -32 l-3 -33 -173 -2 c-163 -1 -175 0 -194
19 -17 17 -20 30 -16 74 5 56 31 98 73 114 27 11 158 0 167 -14z m364 -7 c45
-42 24 -143 -36 -174 -81 -42 -160 -3 -160 78 0 103 125 163 196 96z m229 6
c28 -27 30 -42 13 -131 l-11 -64 -40 0 -39 0 7 58 c4 31 8 61 8 67 1 5 -8 11
-20 13 -24 4 -27 -3 -41 -88 -7 -42 -10 -45 -41 -48 -18 -2 -37 0 -41 5 -4 4
0 51 9 103 l17 95 53 1 c29 1 55 5 58 8 14 13 45 5 68 -19z m2304 -9 c50 -50
21 -144 -55 -178 -38 -16 -50 -18 -80 -8 -43 15 -68 50 -66 97 4 103 131 159
201 89z m2842 -17 c4 -13 7 -18 8 -11 1 6 8 12 17 12 9 0 14 -3 12 -7 -24 -51
-33 -63 -45 -63 -7 0 -13 11 -13 27 0 25 -1 26 -13 8 -22 -29 -29 -1 -10 34
20 35 34 35 44 0z m-75 -52 c91 -46 198 -184 219 -282 3 -17 -5 -5 -18 27 -77
180 -184 268 -334 276 -60 4 -80 0 -127 -21 -103 -47 -191 -153 -235 -283 -24
-72 -35 -82 -15 -13 44 147 146 270 261 314 61 23 186 14 249 -18z m121 -14
c-34 -35 -46 -23 -17 17 16 23 25 29 33 21 8 -8 4 -19 -16 -38z m-533 1 c23
-22 20 -32 -19 -71 -19 -19 -35 -41 -35 -48 0 -26 -17 -24 -38 5 -36 48 -26
66 28 50 l33 -9 -23 24 c-23 24 -23 25 -5 45 22 24 38 25 59 4z m598 -11 c19
-17 24 -43 8 -43 -5 0 -13 7 -18 16 -5 9 -14 14 -21 10 -16 -10 -14 -26 4 -26
8 0 15 -4 15 -10 0 -17 -39 -11 -49 8 -7 14 -6 25 5 40 18 26 31 27 56 5z
m-357 -43 c4 -22 13 -47 22 -55 19 -20 44 -20 37 0 -5 13 3 15 47 14 l54 -2
-4 -40 -3 -41 36 35 c20 18 42 34 48 34 7 0 25 -19 42 -42 24 -35 27 -45 16
-57 -7 -9 -9 -24 -6 -33 6 -15 5 -16 -6 -5 -10 10 -10 16 0 32 10 17 8 26 -14
60 -15 22 -30 40 -33 40 -4 0 -20 -13 -35 -29 l-27 -28 20 -34 c12 -19 21 -43
20 -54 -1 -16 -2 -15 -8 6 -5 14 -14 36 -21 48 -10 19 -14 21 -21 10 -5 -8 -9
-26 -9 -40 0 -21 8 -30 35 -43 51 -24 61 -87 18 -103 -34 -13 -52 -46 -53 -94
0 -34 4 -49 16 -53 22 -8 64 25 62 49 -3 24 29 75 47 75 7 0 18 12 23 28 6 16
11 20 11 10 1 -10 -15 -33 -35 -53 -23 -23 -34 -42 -30 -52 4 -9 -1 -24 -9
-33 -14 -16 -14 -18 5 -23 14 -3 18 -10 14 -21 -5 -13 -9 -14 -21 -5 -21 18
-36 -3 -28 -40 4 -17 13 -31 21 -31 8 0 14 -5 14 -11 0 -5 -5 -7 -11 -3 -7 4
-10 1 -7 -7 3 -8 11 -13 17 -11 13 2 13 0 5 -22 -9 -25 -21 -19 -27 14 -5 23
-10 28 -24 23 -15 -6 -16 -4 -5 9 10 12 10 20 -1 40 -18 35 -37 23 -37 -23 0
-21 -4 -39 -10 -39 -5 0 -10 16 -10 35 0 24 -6 37 -19 45 -29 15 -31 13 -31
-30 0 -22 -4 -40 -10 -40 -5 0 -10 16 -10 35 0 19 -4 35 -8 35 -11 0 -12 39
-1 45 16 11 10 25 -12 25 -19 0 -20 -5 -19 -67 2 -86 -1 -101 -9 -43 -5 36
-10 45 -26 45 -16 0 -21 -9 -26 -45 l-6 -45 -1 48 c-1 27 -6 46 -10 43 -4 -2
-13 -1 -20 3 -9 5 -8 12 3 28 12 18 22 21 53 17 32 -5 35 -4 17 7 -41 25 -46
53 -12 64 l22 8 -25 5 -25 5 25 8 c23 7 24 7 3 8 -12 1 -27 9 -32 20 -9 16 -6
19 25 24 19 3 45 2 57 -3 l22 -9 -22 0 c-27 -1 -31 -20 -5 -22 16 -1 16 -2 0
-6 -10 -2 -18 -8 -18 -13 0 -5 7 -6 17 -3 10 4 14 2 9 -5 -3 -6 -2 -13 3 -16
5 -3 14 13 20 37 7 23 14 47 17 53 3 6 -15 9 -53 7 -85 -5 -120 3 -127 30 l-7
22 -9 -22 c-10 -23 -48 -49 -58 -38 -3 3 4 8 16 12 12 3 25 16 28 29 4 14 15
29 25 35 16 8 19 6 19 -10 0 -27 26 -51 56 -51 16 0 24 6 24 18 1 16 1 16 11
0 20 -36 75 -15 92 35 10 26 23 21 47 -18 12 -19 27 -35 32 -35 6 0 8 -3 4 -7
-5 -5 -21 8 -37 27 -21 24 -29 29 -29 17 0 -9 -7 -17 -15 -17 -8 0 -15 -4 -15
-10 0 -5 3 -9 8 -8 4 1 28 -6 54 -16 55 -22 78 -16 78 19 0 18 -11 31 -40 50
-22 14 -44 25 -50 25 -6 0 -9 4 -6 8 8 13 -40 36 -54 27 -7 -4 -16 -1 -21 6
-4 7 -11 10 -15 6 -13 -12 13 -30 45 -31 31 -1 40 -10 21 -21 -14 -8 -68 16
-75 33 -8 22 4 33 30 26 12 -3 26 -1 29 5 4 6 -1 11 -11 11 -10 0 -27 7 -37
15 -17 13 -21 12 -42 -7 l-22 -22 26 -23 c30 -26 23 -31 -11 -8 -16 10 -26 11
-37 4 -13 -9 -12 -10 3 -5 9 3 17 2 17 -3 0 -17 -104 -31 -119 -16 -2 3 8 18
23 34 24 25 32 28 52 21 13 -5 24 -6 24 -1 0 5 -7 11 -15 15 -24 9 -18 25 18
47 27 17 28 20 7 14 -47 -13 -125 -103 -118 -136 2 -7 -14 -24 -34 -37 -31
-21 -38 -31 -38 -59 0 -40 21 -44 74 -13 l35 19 16 -22 c8 -12 15 -28 14 -37
0 -8 -5 -2 -11 13 -7 20 -15 27 -27 24 -19 -6 -84 -31 -90 -34 -2 -1 4 -14 13
-28 9 -14 14 -30 11 -36 -8 -12 8 -33 47 -60 25 -18 28 -18 28 -4 0 9 -9 19
-19 22 -21 5 -35 29 -26 43 3 5 19 11 36 15 27 6 29 9 16 23 -37 44 -25 42 20
-3 52 -51 55 -75 12 -75 -17 0 -19 -8 -19 -77 0 -80 -17 -94 -22 -18 -2 46
-25 70 -47 52 -12 -10 -14 -9 -9 4 4 11 -2 25 -16 38 -16 15 -22 29 -18 46 3
19 -1 27 -21 34 -29 11 -37 29 -47 94 -5 41 -4 50 12 58 12 6 18 6 18 -1 0 -5
-4 -10 -10 -10 -11 0 -14 -69 -4 -94 12 -32 30 -17 26 22 -3 34 0 41 32 66 20
15 36 35 36 45 0 47 104 147 142 137 25 -6 28 4 16 52 -7 29 -16 42 -32 45
-17 4 -16 5 6 6 23 1 27 -4 33 -39z m-93 12 c-22 -11 -32 -22 -29 -33 5 -19
-29 -44 -63 -44 -18 0 -30 -11 -49 -44 -17 -30 -21 -46 -13 -49 7 -2 12 -15
12 -29 0 -21 -2 -24 -15 -13 -30 25 -12 92 38 138 17 16 27 20 32 12 8 -14 35
6 35 25 0 18 48 55 69 54 9 0 1 -8 -17 -17z m278 -22 c0 -18 -7 -20 -75 -20
-68 0 -75 2 -75 20 0 18 7 20 75 20 68 0 75 -2 75 -20z m225 -20 c7 -11 -31
-70 -46 -70 -5 0 -9 9 -9 19 0 10 -7 21 -15 25 -22 8 -18 24 8 29 41 8 56 7
62 -3z m-747 -46 c25 -17 28 -33 9 -58 -13 -17 -15 -17 -45 -2 -37 19 -38 23
-16 54 18 26 23 27 52 6z m-8034 -35 c14 -11 26 -25 26 -32 0 -6 -10 0 -21 12
-19 20 -29 23 -72 18 -43 -4 -56 -10 -89 -45 -66 -71 -46 -120 43 -108 59 8
60 -8 2 -19 -50 -9 -102 -49 -120 -93 -42 -102 71 -150 169 -72 27 22 36 26
27 12 -20 -32 -82 -62 -128 -62 -106 0 -123 132 -26 196 25 17 25 17 5 31 -48
33 -11 121 69 163 47 25 82 25 115 -1z m2243 -87 c-33 -89 -33 -91 -13 -98 19
-6 19 -7 -6 -11 -23 -4 -31 -16 -65 -101 -21 -53 -39 -89 -41 -80 -2 8 11 50
28 92 16 42 30 79 30 83 0 10 -103 -5 -142 -21 -29 -13 -44 -29 -73 -85 -36
-69 -61 -93 -71 -68 -8 22 13 64 55 110 43 46 68 96 95 190 9 31 21 57 25 57
10 0 -15 -89 -43 -154 -20 -49 -20 -49 6 -35 12 6 53 17 92 23 l71 12 32 80
c17 43 34 88 38 99 4 11 8 15 11 8 3 -6 -10 -52 -29 -101z m6589 63 c9 -37 -2
-55 -35 -55 -47 0 -57 50 -13 67 39 16 41 15 48 -12z m-7989 -1 c9 -25 -28
-93 -74 -132 -27 -24 -45 -48 -49 -69 -9 -43 7 -42 40 2 31 40 45 43 68 16 15
-18 15 -21 -5 -39 -18 -17 -35 -20 -99 -20 -43 1 -78 5 -78 9 0 5 -11 3 -25
-3 -31 -14 -43 -4 -27 22 17 28 -3 25 -25 -3 -19 -24 -93 -38 -93 -17 0 7 -6
7 -21 0 -11 -7 -27 -9 -35 -6 -13 5 -13 10 1 36 8 16 20 30 25 30 6 0 3 -11
-6 -25 -27 -42 -7 -42 35 -1 27 26 45 37 56 32 14 -5 15 -9 5 -21 -7 -8 -21
-15 -31 -15 -11 0 -19 -7 -19 -15 0 -8 6 -15 13 -15 19 0 57 29 57 44 0 7 14
12 35 13 l34 1 -15 -29 c-19 -38 -10 -37 37 6 21 19 45 32 52 29 8 -3 21 14
36 50 25 61 76 136 91 136 6 0 13 -7 17 -16z m-392 -4 c10 -17 -25 -84 -67
-127 -42 -42 -47 -64 -11 -45 11 6 25 7 32 3 18 -11 -5 -56 -36 -70 -27 -12
-67 -6 -58 10 4 5 2 9 -4 9 -5 0 -12 -4 -15 -8 -3 -5 -26 -9 -52 -10 -40 0
-45 2 -41 19 7 25 -17 25 -43 -1 -25 -25 -70 -27 -70 -3 0 15 -1 15 -18 0 -21
-19 -67 -24 -57 -6 4 6 13 8 20 5 16 -6 14 17 -5 38 -9 12 -10 20 -3 27 13 13
53 3 53 -13 0 -6 -6 -6 -15 2 -20 17 -32 5 -15 -15 17 -20 25 -19 59 6 16 12
34 18 40 15 18 -11 13 -23 -10 -22 -22 1 -48 -28 -36 -40 11 -12 59 15 64 36
3 11 10 20 15 20 5 0 6 -4 3 -10 -9 -15 8 -12 33 6 26 18 27 13 7 -26 -20 -40
-2 -39 35 0 34 37 46 39 24 5 -9 -14 -14 -29 -10 -32 11 -11 55 39 67 76 35
107 93 185 114 151z m7550 -12 c21 -10 36 -38 20 -38 -14 0 -65 32 -65 40 0
13 13 13 45 -2z m-5535 -1 c0 -2 -11 -25 -24 -53 l-24 -49 52 -6 51 -6 -57 -1
-56 -2 -16 -47 c-9 -25 -14 -49 -11 -52 3 -2 23 12 44 33 38 38 71 44 71 14 0
-9 3 -9 11 2 8 12 12 12 16 2 4 -10 10 -10 29 3 26 17 31 7 13 -27 -19 -35 0
-32 36 6 34 37 45 34 24 -6 -18 -34 -1 -33 31 2 20 22 42 34 61 35 30 2 38
-12 18 -32 -24 -24 -4 -34 24 -13 15 12 27 17 27 12 0 -5 -10 -16 -23 -25 -26
-17 -107 -21 -107 -5 0 7 -4 7 -12 1 -7 -6 -35 -11 -61 -11 -43 0 -48 2 -44
19 7 26 -24 25 -48 -1 -19 -21 -65 -28 -65 -10 0 6 -11 3 -25 -6 -28 -18 -47
-11 -38 14 6 16 5 16 -13 0 -21 -18 -100 -23 -110 -7 -3 6 4 24 16 42 21 31
23 18 5 -25 -9 -22 8 -24 25 -4 6 8 19 12 28 8 15 -5 15 -4 0 12 -20 20 -23
32 -8 41 14 9 50 -4 50 -17 0 -6 -6 -6 -15 2 -20 17 -32 5 -15 -15 16 -19 25
-19 44 1 21 20 20 41 -1 47 -14 4 -12 5 5 6 18 1 28 14 49 61 14 33 30 60 34
60 5 0 9 -1 9 -3z m5500 -35 c0 -4 -5 -13 -12 -20 -7 -7 -8 -12 -4 -12 5 0 14
7 21 17 18 24 49 9 41 -20 -9 -28 -14 -50 -15 -59 -1 -5 -8 -8 -16 -8 -8 0
-15 -4 -15 -10 0 -5 7 -10 15 -10 8 0 15 -5 15 -11 0 -6 -16 -9 -37 -7 -35 3
-38 6 -38 33 0 28 3 30 32 28 24 -2 31 1 27 11 -3 8 -1 17 5 21 6 3 11 12 11
18 0 7 -9 1 -19 -12 -10 -13 -23 -21 -30 -17 -12 8 -15 48 -4 59 9 10 23 9 23
-1z m890 -14 c0 -7 3 -23 6 -35 4 -14 2 -23 -5 -23 -6 0 -12 8 -12 18 -1 16
-2 16 -6 0 -2 -10 -8 -18 -13 -18 -5 0 -11 8 -13 18 -4 13 -5 11 -6 -5 -1 -25
-21 -32 -21 -9 0 8 -2 21 -5 29 -4 9 5 17 27 24 45 15 48 15 48 1z m-170 -27
c15 -29 12 -33 -10 -14 -21 19 -26 33 -10 33 5 0 14 -9 20 -19z m99 -80 c1
-35 -5 -22 -12 24 -5 28 -4 34 3 20 5 -11 9 -31 9 -44z m118 17 c-3 -7 -5 -2
-5 12 0 14 2 19 5 13 2 -7 2 -19 0 -25z m-5509 -18 c5 -13 3 -13 -12 -1 -9 8
-20 11 -24 7 -14 -14 29 -36 49 -25 26 13 24 5 -6 -26 -25 -24 -83 -37 -70
-14 4 6 13 8 20 5 15 -5 14 10 -3 41 -9 17 -9 23 1 27 20 8 40 2 45 -14z
m4622 -100 l-7 -115 -1 95 c-1 78 5 150 12 138 1 -2 -1 -55 -4 -118z m-7070
75 c-16 -42 -5 -42 36 -1 41 41 55 42 28 2 -25 -39 -10 -43 26 -7 18 17 36 28
41 25 6 -3 16 -1 24 6 21 18 29 -7 11 -35 -23 -34 -8 -31 31 7 36 35 100 49
87 19 -3 -9 -9 -24 -12 -35 -5 -18 -4 -18 24 0 l29 18 -18 -21 c-14 -16 -30
-21 -63 -21 -24 0 -44 4 -44 9 0 6 -8 6 -19 -1 -33 -17 -44 -12 -37 18 l6 27
-21 -25 c-21 -24 -89 -40 -89 -20 0 5 -11 4 -25 -2 -38 -17 -51 1 -30 42 20
38 30 35 15 -5z m439 -11 c-6 -8 -9 -17 -6 -21 4 -3 23 12 43 33 22 23 34 31
29 19 -21 -56 -20 -59 9 -40 15 10 31 26 37 36 5 11 14 19 20 19 5 0 2 -14 -6
-31 -24 -45 -13 -46 34 -4 25 22 47 35 56 31 25 -9 17 -26 -15 -32 -16 -4 -30
-13 -30 -20 0 -23 26 -16 60 16 37 35 45 37 30 11 -5 -11 -10 -24 -10 -30 0
-19 31 1 46 31 8 16 19 26 25 23 5 -4 7 -11 4 -16 -9 -13 9 -11 23 3 6 6 25
12 42 13 25 1 30 -1 24 -14 -3 -9 -9 -25 -12 -35 -6 -21 5 -18 43 13 15 12 14
9 -3 -11 -19 -21 -33 -26 -68 -26 -37 0 -44 3 -44 19 0 25 -21 24 -43 -1 -19
-23 -43 -26 -50 -7 -4 10 -7 10 -18 0 -16 -16 -56 -17 -61 -2 -3 8 -10 8 -26
-2 -19 -12 -24 -12 -31 -1 -7 11 -12 12 -29 1 -16 -10 -24 -10 -34 -1 -11 8
-17 9 -26 0 -6 -6 -18 -8 -27 -4 -13 5 -14 10 -4 28 10 19 7 18 -21 -7 -32
-30 -32 -30 -25 -5 10 35 24 59 25 42 0 -10 5 -9 23 3 20 14 22 14 25 0 2 -9
-2 -23 -9 -31z m1505 40 c24 -9 19 -26 -5 -19 -22 7 -39 -7 -39 -32 0 -22 21
-14 61 22 43 38 57 43 65 20 7 -18 34 -20 35 -2 0 9 2 9 6 0 3 -10 10 -9 27 2
30 20 40 8 20 -23 -21 -32 -13 -37 19 -11 15 11 27 17 27 12 -1 -15 -51 -45
-66 -39 -12 5 -13 10 -3 28 10 20 7 18 -21 -7 -22 -20 -31 -24 -27 -12 8 21
-6 23 -23 3 -8 -11 -30 -14 -73 -13 -70 2 -82 17 -47 55 23 25 22 24 44 16z
m292 -31 l-6 -38 35 39 c24 27 35 34 35 23 0 -21 14 -22 30 -2 17 20 32 19 53
-6 17 -19 17 -21 -5 -39 -30 -25 -59 -25 -65 0 -3 11 -11 20 -18 20 -6 0 -20
-9 -30 -20 -35 -39 -61 -21 -44 29 15 42 23 39 15 -6z m5694 -2 c0 -43 -17
-47 -51 -14 -33 34 -29 43 18 43 30 0 33 -3 33 -29z m-983 -133 c-2 -29 -3 -8
-3 47 0 55 1 79 3 53 2 -26 2 -71 0 -100z m47 112 l8 25 7 -25 7 -25 9 25 c8
24 8 24 12 -8 6 -43 2 -46 -42 -38 -28 6 -35 11 -35 30 0 32 14 42 21 14 l5
-23 8 25z m853 -12 c-3 -8 -6 -5 -6 6 -1 11 2 17 5 13 3 -3 4 -12 1 -19z m93
-43 c0 -7 -17 -20 -37 -28 l-38 -16 32 0 c41 -1 49 -15 21 -35 -18 -13 -19
-16 -5 -16 9 0 17 -7 17 -15 0 -17 -46 -20 -70 -5 -13 9 -13 12 3 24 18 14 24
32 7 21 -5 -3 -8 18 -7 53 l1 59 38 -15 c21 -8 38 -21 38 -27z m-93 -27 c-2
-13 -4 -5 -4 17 -1 22 1 32 4 23 2 -10 2 -28 0 -40z m-829 16 c30 -8 28 -38
-3 -52 -32 -15 -45 -15 -45 -2 0 6 10 15 23 20 12 5 17 9 11 9 -5 1 -19 8 -30
16 -19 14 -19 14 1 15 11 0 30 -3 43 -6z m213 -97 c-16 -16 -26 0 -10 19 9 11
15 12 17 4 2 -6 -1 -17 -7 -23z m496 11 c47 -44 24 -57 -47 -25 -38 18 -18 23
25 7 17 -7 24 -7 20 0 -3 6 -13 10 -21 10 -8 0 -14 7 -14 15 0 21 10 19 37 -7z
m-677 3 c0 -11 -25 -21 -56 -21 -23 0 -31 10 -17 23 10 10 73 8 73 -2z m787
-33 c-3 -8 -6 -5 -6 6 -1 11 2 17 5 13 3 -3 4 -12 1 -19z m-760 -20 c-3 -7 -5
-2 -5 12 0 14 2 19 5 13 2 -7 2 -19 0 -25z m-27 7 c0 -8 -4 -15 -10 -15 -5 0
-10 -4 -10 -10 0 -5 7 -7 15 -4 9 4 15 0 15 -10 0 -9 -4 -16 -9 -16 -5 0 -23
-3 -40 -6 -25 -5 -31 -3 -31 10 0 9 7 19 17 23 14 5 13 8 -6 15 -31 11 -17 28
25 28 24 0 34 -5 34 -15z m174 0 c-3 -7 -16 -12 -29 -12 -15 0 -22 4 -19 12 3
7 16 13 29 13 15 0 22 -5 19 -13z m733 -17 c-3 -7 -5 -2 -5 12 0 14 2 19 5 13
2 -7 2 -19 0 -25z m-927 -205 c70 -144 205 -261 336 -292 23 -5 30 -9 17 -10
-70 -3 -204 79 -280 171 -73 89 -154 271 -152 342 0 11 9 -12 20 -53 10 -41
37 -112 59 -158z m263 208 c-4 -17 -33 -39 -33 -26 0 5 33 45 36 45 1 0 0 -9
-3 -19z m629 13 c3 -3 3 -17 -1 -32 -9 -31 -50 -42 -70 -18 -22 26 -4 56 33
56 18 0 35 -3 38 -6z m-172 -54 c-13 -9 -13 -10 0 -10 11 -1 8 -6 -8 -20 -22
-18 -22 -20 -7 -50 9 -17 13 -35 10 -40 -4 -6 -64 -10 -141 -10 -83 0 -134 -4
-134 -10 0 -5 -9 -10 -20 -10 -11 0 -20 5 -20 10 0 6 -52 10 -135 10 -83 0
-135 4 -135 10 0 6 51 10 134 10 110 0 135 3 140 15 3 9 0 15 -9 15 -7 0 -17
5 -21 12 -5 8 0 9 14 6 35 -9 15 11 -21 21 -24 7 -27 9 -10 10 12 1 34 -4 48
-11 19 -9 28 -9 37 0 7 7 23 12 38 12 35 0 112 -24 105 -33 -2 -4 1 -3 7 3 7
5 20 10 30 10 10 0 18 5 18 11 0 5 4 7 10 4 5 -3 7 0 4 8 -3 8 -1 18 5 22 6 3
15 -4 20 -17 9 -21 11 -21 15 0 1 4 5 13 9 19 4 7 3 23 -4 35 l-11 23 23 -23
c20 -19 22 -24 9 -32z m-39 15 c5 4 9 1 9 -4 0 -13 -10 -14 -29 -2 -8 6 -10
14 -5 22 7 11 9 10 12 -4 2 -9 8 -15 13 -12z m99 -58 c-64 -176 -205 -299
-340 -296 l-55 2 61 7 c83 11 147 44 210 106 54 55 118 168 130 232 4 20 9 31
12 24 2 -7 -6 -41 -18 -75z m-675 -60 c49 -105 116 -163 255 -225 24 -11 24
-11 -5 -5 -122 24 -281 202 -300 335 -4 30 -4 30 9 -8 7 -22 26 -66 41 -97z
m65 126 c0 -5 -4 -15 -10 -23 -11 -18 -25 -7 -17 15 6 15 27 21 27 8z m20 -23
c0 -5 -2 -10 -4 -10 -3 0 -8 5 -11 10 -3 6 -1 10 4 10 6 0 11 -4 11 -10z m715
-62 c-66 -203 -243 -386 -390 -403 l-40 -5 46 14 c135 39 258 148 326 286 23
47 48 107 54 135 7 27 14 44 17 37 2 -6 -4 -36 -13 -64z m-855 6 c0 -23 -30
-44 -61 -44 -20 0 -7 28 16 34 36 9 31 27 -5 20 -23 -5 -30 -3 -30 9 0 18 48
28 68 14 6 -5 12 -20 12 -33z m123 4 c5 -19 12 -20 67 -16 35 2 65 10 70 17 6
10 12 10 29 2 28 -15 27 -20 -7 -19 -15 1 -43 -4 -62 -10 -57 -18 -100 -22
-100 -9 0 7 -6 24 -14 39 -11 21 -11 26 -1 22 7 -3 15 -15 18 -26z m34 12 c-1
-22 -17 -28 -17 -7 0 12 9 27 16 27 2 0 2 -9 1 -20z m663 5 c18 -21 -2 -65
-29 -65 -20 0 -54 27 -48 38 2 4 7 15 10 25 8 21 50 23 67 2z m-729 -58 c-10
-9 -11 -8 -5 6 3 10 9 15 12 12 3 -3 0 -11 -7 -18z m390 -97 c12 0 19 -7 19
-20 0 -18 -7 -19 -140 -19 -126 1 -140 2 -140 18 0 14 9 18 46 18 29 1 42 -2
33 -7 -7 -5 -11 -12 -7 -15 3 -3 12 0 19 8 8 7 36 14 64 16 27 1 52 4 54 7 3
2 11 2 19 -1 7 -3 22 -5 33 -5z m36 -32 c-3 -7 -5 -2 -5 12 0 14 2 19 5 13 2
-7 2 -19 0 -25z m-420 -13 c3 -9 2 -19 -2 -23 -4 -4 -10 -1 -12 6 -3 6 -11 12
-19 12 -17 0 -19 -27 -1 -33 6 -2 9 -8 5 -12 -9 -10 -38 13 -38 29 0 32 55 49
67 21z m602 9 c35 -7 40 -19 11 -27 -13 -3 -18 -11 -14 -20 8 -22 -26 -30 -47
-11 -17 16 -18 15 -7 -14 15 -40 6 -49 -27 -28 -27 18 -35 7 -9 -15 14 -11 13
-15 -8 -31 -31 -24 -43 -23 -63 8 -21 33 -9 46 14 15 14 -18 22 -21 35 -14 16
9 16 11 2 22 -33 27 -12 60 25 41 18 -10 19 -10 10 8 -17 32 8 47 36 20 26
-24 31 -13 8 18 -26 34 -21 39 34 28z m-8197 -124 c10 -52 36 -198 59 -325 22
-126 43 -237 46 -245 3 -8 36 135 74 318 37 182 71 337 74 342 10 15 270 13
283 -2 10 -13 122 -594 122 -638 1 -39 16 -4 25 55 7 55 103 550 111 578 5 15
20 17 140 17 100 0 136 -3 140 -13 2 -7 -58 -253 -133 -547 l-138 -535 -143
-3 c-140 -3 -142 -2 -152 20 -10 24 -104 501 -116 590 -9 63 0 94 -85 -297
-34 -159 -66 -296 -72 -302 -11 -15 -282 -19 -291 -5 -11 19 -256 1068 -251
1080 3 10 37 12 147 10 l142 -3 18 -95z m1443 -450 l0 -545 -135 0 -135 0 -3
535 c-1 294 0 541 3 548 3 9 37 12 137 10 l133 -3 0 -545z m853 441 c2 -67 -1
-108 -9 -117 -9 -11 -52 -14 -205 -14 l-194 0 0 -100 0 -100 188 -2 187 -3 3
-104 c2 -67 -1 -108 -9 -117 -9 -11 -49 -14 -190 -14 l-179 0 -2 -207 -3 -208
-135 0 -135 0 -3 535 c-1 294 0 541 3 548 3 10 77 12 342 10 l338 -3 3 -104z
m417 -441 l0 -545 -135 0 -135 0 -3 535 c-1 294 0 541 3 548 3 9 37 12 137 10
l133 -3 0 -545z m4925 514 c19 -22 -22 -64 -47 -48 -24 15 -26 29 -8 48 21 20
39 20 55 0z m58 -44 c19 -16 21 -22 11 -44 -13 -27 -36 -37 -25 -11 3 8 9 22
13 32 4 11 3 14 -5 9 -7 -4 -12 -14 -12 -22 0 -15 -27 -19 -49 -5 -11 7 -10
13 4 35 20 31 32 32 63 6z m332 -71 c-12 -22 -31 -24 -48 -7 -17 17 -15 45 6
57 25 15 56 -23 42 -50z m-280 1 c-12 -22 -31 -23 -38 -2 -2 7 2 10 12 6 11
-4 16 0 16 13 0 11 3 23 8 27 12 13 14 -22 2 -44z m65 -10 c7 -31 6 -33 -9
-21 -8 7 -23 11 -31 7 -20 -7 -19 8 1 40 20 29 29 23 39 -26z m145 24 c12 -30
-2 -54 -30 -54 -22 0 -37 60 -18 72 23 14 38 8 48 -18z m-85 -24 c3 -5 -1 -10
-10 -10 -9 0 -13 5 -10 10 3 6 8 10 10 10 2 0 7 -4 10 -10z m-3438 -127 c248
-168 413 -297 413 -323 0 -11 -41 -49 -107 -100 -284 -218 -415 -311 -431
-308 -14 3 -17 18 -20 96 l-3 92 -515 0 c-563 0 -561 0 -603 58 -19 27 -21 43
-21 153 l0 122 40 38 41 39 527 2 527 3 3 85 c1 47 4 91 7 98 9 24 45 11 142
-55z m1237 -12 c58 -14 62 -23 42 -86 -9 -30 -20 -56 -24 -59 -4 -2 -36 2 -71
10 -146 34 -263 -34 -291 -171 -25 -121 34 -205 143 -205 43 0 53 12 62 73 l7
47 -35 0 c-49 0 -57 14 -45 78 l11 52 118 0 c65 0 120 -3 122 -7 4 -7 -24
-173 -50 -298 -9 -40 -9 -40 -78 -58 -83 -22 -219 -18 -277 7 -99 43 -152 133
-151 256 1 96 30 173 89 239 54 60 97 88 172 112 62 20 191 25 256 10z m2247
-2 c57 -20 59 -24 37 -82 -11 -29 -23 -55 -26 -59 -4 -4 -30 -1 -57 8 -58 17
-116 11 -140 -16 -27 -30 -10 -53 68 -98 79 -45 96 -60 121 -109 24 -47 20
-102 -11 -163 -23 -43 -39 -60 -83 -84 -51 -29 -63 -31 -150 -31 -101 0 -190
24 -190 50 0 12 37 105 44 113 2 1 33 -7 69 -19 73 -24 120 -21 158 10 38 30
20 60 -67 111 -125 73 -159 149 -111 252 25 57 63 88 136 114 45 16 157 18
202 3z m-1744 -27 c50 -26 80 -63 89 -109 13 -69 -33 -157 -96 -183 -27 -11
-29 -15 -17 -29 21 -23 35 -76 42 -156 3 -38 8 -82 11 -97 l6 -28 -76 0 c-41
0 -77 4 -80 9 -3 4 -10 50 -16 102 -12 105 -26 129 -76 129 -32 0 -32 0 -43
-67 -6 -38 -16 -92 -22 -120 l-10 -53 -75 0 c-52 0 -74 4 -74 13 0 15 108 577
114 594 7 16 54 21 176 19 85 -2 113 -7 147 -24z m543 25 c0 -11 47 -409 60
-515 16 -122 22 -113 -67 -110 l-78 3 -9 78 -8 78 -80 -3 -79 -3 -33 -75 -33
-75 -68 -3 c-37 -2 -74 -1 -81 2 -10 4 26 85 122 283 75 153 143 293 150 311
l14 32 95 0 c52 0 95 -1 95 -3z m600 -12 c0 -7 -5 -37 -11 -65 l-11 -50 -82 0
-82 0 -43 -237 c-23 -131 -44 -244 -47 -250 -4 -15 -139 -19 -148 -4 -3 4 15
115 39 246 25 131 45 239 45 241 0 2 -33 4 -74 4 -41 0 -77 4 -80 8 -4 7 8 78
19 110 3 9 60 12 240 12 199 0 235 -2 235 -15z m199 -2 c0 -10 -26 -151 -57
-313 l-57 -295 -69 -3 c-38 -2 -72 1 -77 5 -5 6 89 550 107 611 2 8 27 12 79
12 65 0 75 -2 74 -17z m-2548 -1176 c4 -5 10 -4 13 2 8 13 52 15 60 2 3 -4 23
-11 44 -15 22 -3 45 -13 52 -21 7 -8 18 -15 24 -15 6 0 27 -8 46 -18 19 -11
48 -22 64 -26 31 -8 126 -84 126 -102 0 -7 7 -24 14 -40 8 -15 13 -32 10 -36
-9 -14 -14 -58 -14 -111 0 -39 -3 -48 -17 -45 -9 2 -21 12 -27 23 -6 11 -17
24 -24 28 -19 12 -4 28 22 21 17 -4 25 1 34 21 17 36 15 38 -13 19 -27 -18
-65 -11 -65 12 0 12 4 13 22 3 18 -10 24 -8 35 7 16 22 16 34 -1 57 -11 14
-15 15 -19 4 -3 -8 -19 -14 -36 -15 -25 0 -32 4 -41 31 -12 36 -53 87 -70 87
-7 0 -24 8 -38 19 -15 10 -59 27 -99 37 -70 18 -72 18 -92 -1 -12 -10 -24 -15
-27 -12 -4 4 4 15 17 26 l24 20 -26 1 c-29 0 -98 -48 -99 -68 0 -7 4 -11 9 -8
8 6 23 -45 15 -53 -10 -11 -34 25 -34 53 -1 26 -2 28 -11 13 -6 -9 -14 -15
-19 -12 -10 6 -15 -1 -24 -39 -6 -23 -4 -27 8 -23 14 6 46 -26 46 -45 0 -32
-83 26 -101 70 -9 23 -29 30 -29 10 0 -6 8 -20 17 -30 10 -11 18 -40 19 -74 2
-31 6 -65 9 -75 7 -20 40 -26 50 -8 4 6 14 8 22 5 8 -3 23 -1 34 5 16 8 26 7
44 -5 31 -20 64 -20 93 0 12 8 26 12 32 9 5 -3 18 -1 28 4 14 7 26 5 48 -10
16 -10 36 -19 45 -19 26 0 42 -45 42 -123 1 -54 -3 -81 -16 -100 -10 -15 -12
-27 -6 -29 6 -2 7 -11 4 -20 -7 -17 -78 -30 -185 -32 -43 -1 -61 -7 -78 -24
-15 -15 -34 -22 -62 -22 -22 0 -40 4 -40 9 0 6 -10 8 -22 5 -13 -2 -48 -8 -78
-13 -30 -5 -70 -14 -87 -19 -38 -12 -41 -5 -13 31 20 25 28 77 12 77 -19 0
-43 61 -37 94 6 27 2 41 -17 66 -21 29 -23 40 -20 141 3 126 23 189 69 212 15
8 33 12 40 10 6 -2 14 1 18 6 3 6 19 11 35 11 16 0 32 5 35 10 3 6 14 10 24
10 10 0 28 11 41 25 40 42 115 49 141 12z m1264 -29 c-1 -20 -7 -23 -43 -22
-23 1 -42 -3 -42 -8 0 -12 -51 -1 -65 14 -7 7 -6 9 1 5 6 -4 40 2 75 13 35 10
67 19 70 19 3 1 5 -9 4 -21z m-190 -28 c-28 -12 -37 -12 -30 0 3 6 16 10 28 9
21 0 21 -1 2 -9z m-55 -15 c0 -2 -13 -11 -30 -20 -38 -19 -40 -11 -2 9 31 17
32 18 32 11z m101 -12 c12 -15 12 -16 -4 -10 -10 4 -23 7 -28 7 -5 0 -9 5 -9
10 0 16 26 12 41 -7z m259 -44 c0 -13 -21 10 -38 41 -12 23 -11 23 12 -3 15
-15 26 -33 26 -38z m-340 -4 c-34 -36 -53 -45 -44 -22 4 10 61 55 73 56 3 1
-10 -15 -29 -34z m383 -6 c-9 -9 -12 -7 -10 9 1 14 5 18 11 12 7 -7 6 -14 -1
-21z m-1384 -36 c1 -7 -3 -13 -8 -13 -11 0 -19 31 -13 50 4 11 7 10 13 -5 4
-11 8 -26 8 -32z m-61 9 c2 -12 -1 -22 -7 -22 -6 0 -11 -9 -11 -20 0 -11 -4
-20 -10 -20 -11 0 -13 33 -4 68 8 28 28 24 32 -6z m962 -45 c0 -2 -12 -14 -27
-28 l-28 -24 24 28 c23 25 31 32 31 24z m-1106 -33 c5 -14 4 -15 -9 -4 -17 14
-19 20 -6 20 5 0 12 -7 15 -16z m456 -14 c18 -12 2 -12 -25 0 -13 6 -15 9 -5
9 8 0 22 -4 30 -9z m591 -117 c62 -61 99 -93 109 -93 11 0 41 -23 79 -61 14
-14 43 -34 64 -44 20 -9 37 -21 37 -26 0 -5 6 -9 14 -9 9 0 16 -17 21 -50 4
-27 10 -52 15 -55 4 -3 11 -24 14 -47 7 -42 35 -106 36 -80 0 17 27 15 34 -4
9 -24 7 -119 -3 -146 -5 -13 -24 -29 -44 -37 -22 -9 -33 -19 -30 -28 4 -9 0
-11 -11 -7 -12 5 -19 0 -23 -14 -2 -11 -18 -26 -34 -32 -16 -7 -29 -16 -29
-21 0 -5 -11 -11 -25 -15 -14 -3 -25 -12 -25 -20 0 -8 -7 -14 -15 -14 -8 0
-15 -3 -15 -8 0 -11 -59 -34 -88 -34 -14 0 -33 9 -43 20 -9 12 -20 18 -24 14
-5 -4 -5 1 -2 11 4 10 7 25 7 33 0 10 6 13 18 10 20 -7 70 38 54 48 -5 3 -15
-1 -22 -9 -15 -18 -70 -16 -70 2 0 7 7 10 15 7 9 -4 15 0 15 9 0 9 -10 17 -22
19 -41 6 -28 23 31 41 35 11 69 16 83 12 21 -7 22 -6 7 9 -14 15 -21 15 -89 0
-71 -16 -74 -16 -87 2 -12 17 -12 20 4 24 29 9 73 33 73 40 0 12 -65 -2 -83
-18 -40 -35 -74 31 -63 123 3 28 12 55 21 61 24 18 18 26 -14 19 -33 -7 -36
-4 -46 44 -6 29 -5 33 9 28 21 -8 21 7 0 24 -24 20 -16 192 11 232 15 24 78
74 94 76 2 1 21 -16 42 -36z m744 -81 c-5 -5 -25 43 -25 61 1 7 7 -3 16 -22 8
-19 12 -36 9 -39z m-1355 54 c0 -3 -4 -8 -10 -11 -5 -3 -10 -1 -10 4 0 6 5 11
10 11 6 0 10 -2 10 -4z m1379 -77 c-16 -10 -23 -4 -14 10 3 6 11 8 17 5 6 -4
5 -9 -3 -15z m-1202 -40 c-3 -11 1 -32 8 -47 18 -35 16 -186 -2 -188 -7 -1
-16 -3 -20 -4 -5 -1 -20 -1 -35 0 -24 1 -28 -2 -28 -23 0 -14 5 -27 11 -29 14
-5 18 -38 7 -68 -6 -18 -2 -41 11 -77 11 -29 17 -62 14 -74 -8 -30 -23 -4 -23
41 -1 31 -2 33 -14 18 -18 -24 -30 -23 -23 2 3 11 1 22 -3 25 -4 3 -6 14 -3
25 3 11 0 27 -7 35 -7 9 -8 15 -2 15 5 0 8 9 5 20 -6 23 -14 25 -31 8 -9 -9
-19 -7 -41 10 -26 19 -32 20 -45 7 -8 -8 -22 -12 -30 -9 -20 8 -20 11 4 41 11
14 20 35 20 47 0 17 2 18 10 6 12 -20 20 -10 27 36 3 22 13 49 23 60 14 19 19
20 34 9 14 -11 16 -22 11 -59 -8 -50 1 -116 15 -116 13 0 24 40 21 78 -1 20 2
31 8 27 13 -7 48 28 43 43 -2 7 7 16 21 21 20 8 24 15 19 37 -3 15 -17 33 -33
43 -33 18 -45 41 -23 41 11 0 13 6 9 19 -4 14 0 21 12 23 22 5 37 -17 30 -43z
m-77 -6 c0 -10 -12 -28 -27 -40 -94 -78 -103 -84 -103 -69 0 17 103 126 119
126 6 0 11 -8 11 -17z m1125 -31 c15 -10 45 -79 45 -102 0 -10 -4 -22 -10 -25
-9 -6 -14 10 -13 43 1 6 -10 12 -24 12 -23 0 -23 -1 -9 -22 9 -12 16 -32 15
-43 -1 -17 -2 -16 -12 6 -7 14 -17 32 -23 40 -17 23 -15 59 4 59 14 0 14 2 3
9 -8 5 -24 6 -37 1 -28 -11 -39 -1 -16 16 19 15 61 18 77 6z m-6198 -54 c-3
-8 -6 -5 -6 6 -1 11 2 17 5 13 3 -3 4 -12 1 -19z m17 -34 c3 -8 2 -12 -4 -9
-6 3 -10 10 -10 16 0 14 7 11 14 -7z m5078 -14 c-1 -13 -5 -26 -8 -29 -9 -10
-22 21 -17 41 8 26 29 16 25 -12z m-1628 -61 c32 4 36 0 30 -36 -8 -52 -15
-60 -29 -32 -7 13 -22 24 -34 24 -26 0 -27 10 -5 40 11 15 21 20 25 14 3 -6 9
-10 13 -10z m2616 7 c0 -8 -4 -18 -10 -21 -15 -9 -12 -25 4 -25 8 0 18 9 21
21 4 11 11 19 17 17 5 -2 8 -6 7 -8 -1 -3 3 -14 9 -26 9 -16 8 -26 -4 -42 -20
-29 -64 -30 -64 -2 0 11 -5 20 -11 20 -6 0 -9 7 -6 14 4 9 -2 17 -13 21 -10 3
-21 13 -25 22 -5 14 -3 14 15 -2 18 -17 22 -16 19 1 -1 8 22 24 34 24 4 0 7
-6 7 -14z m-1666 -31 c4 -14 11 -25 16 -25 6 0 10 -11 10 -24 0 -14 6 -28 13
-33 16 -10 50 -4 60 11 5 8 9 7 16 -2 7 -11 13 -9 31 10 18 18 22 19 16 5 -3
-10 -6 -22 -6 -27 0 -11 -56 -30 -88 -30 -61 0 -132 88 -102 125 18 21 27 19
34 -10z m242 -7 c4 -6 7 -26 6 -45 -1 -23 3 -33 13 -33 8 0 15 -6 15 -14 0 -8
3 -21 6 -30 4 -10 1 -16 -9 -16 -8 0 -17 -4 -19 -9 -1 -5 -15 -13 -30 -16 -23
-6 -28 -4 -29 11 0 11 -3 14 -6 7 -5 -15 -33 -18 -33 -4 0 6 5 13 10 16 6 3
10 15 10 26 0 11 4 18 9 15 5 -3 9 0 8 7 -2 70 4 97 22 97 11 0 23 -5 27 -12z
m234 -8 c0 -10 -10 -28 -22 -40 -27 -25 -93 -28 -102 -4 -7 19 -4 24 16 28 7
2 25 8 40 14 15 6 35 9 43 6 8 -4 15 -1 15 5 0 6 2 11 5 11 3 0 5 -9 5 -20z
m-4533 -66 c-3 -3 -12 -4 -19 -1 -8 3 -5 6 6 6 11 1 17 -2 13 -5z m43 -14 c8
-5 11 -10 5 -10 -5 0 -17 5 -25 10 -8 5 -10 10 -5 10 6 0 17 -5 25 -10z m3040
-25 c0 -5 4 -4 8 3 14 22 41 3 39 -28 -1 -15 -6 -26 -12 -24 -5 1 -36 10 -68
19 l-58 16 22 23 c18 19 26 21 45 12 13 -6 24 -15 24 -21z m1430 15 c0 -5 -4
-10 -10 -10 -5 0 -10 5 -10 10 0 6 5 10 10 10 6 0 10 -4 10 -10z m1722 -99
c86 -85 92 -90 131 -103 17 -6 39 -17 49 -25 9 -8 49 -23 90 -33 68 -18 77
-24 138 -88 111 -116 129 -140 220 -284 36 -57 47 -68 71 -68 20 0 38 -12 68
-47 23 -27 44 -59 48 -73 3 -14 21 -50 39 -81 34 -57 90 -206 81 -216 -3 -2
-30 12 -60 32 -78 52 -140 66 -208 49 -29 -8 -67 -14 -85 -14 -17 0 -34 -3
-38 -7 -3 -4 -12 -8 -19 -9 -59 -10 -177 -91 -177 -122 0 -35 -10 -2 -15 51
-3 31 -10 69 -15 83 -6 14 -7 30 -4 36 9 14 13 64 18 213 2 66 9 133 16 149
14 37 22 146 10 146 -4 0 -7 7 -6 16 0 9 -4 19 -10 21 -6 2 -11 -14 -12 -37
-2 -27 1 -40 10 -40 7 0 4 -6 -7 -12 -31 -18 -44 -40 -35 -63 5 -11 13 -19 20
-17 7 1 10 -3 7 -10 -2 -7 -9 -12 -15 -11 -6 1 -15 -11 -20 -26 -9 -25 -8 -30
9 -34 24 -6 24 -29 -1 -93 -10 -29 -16 -54 -13 -58 4 -3 1 -6 -5 -6 -7 0 -15
-1 -19 -2 -5 -2 -7 13 -5 33 3 30 -2 40 -24 58 -20 15 -24 25 -16 30 14 8 -14
36 -37 36 -8 0 -15 14 -17 39 -2 21 -11 61 -20 88 -11 36 -14 65 -10 102 l7
51 -23 -23 c-22 -22 -23 -28 -22 -176 1 -85 5 -160 10 -167 13 -21 16 -59 4
-59 -5 0 -10 -5 -10 -11 0 -5 5 -7 10 -4 6 3 10 -1 10 -9 0 -8 -4 -17 -9 -20
-5 -3 -9 -25 -9 -48 -1 -33 4 -47 21 -60 l22 -17 -23 6 c-19 5 -23 2 -21 -13
7 -43 -82 -135 -101 -104 -5 8 -9 7 -14 -5 -5 -14 -9 -15 -22 -4 -14 11 -13
14 8 25 17 10 19 13 6 14 -12 0 -18 11 -20 38 -3 31 -5 34 -13 17 -5 -11 -12
-23 -17 -26 -17 -11 -17 -103 0 -122 14 -16 14 -19 -6 -33 -22 -15 -32 -41
-10 -28 7 5 8 3 3 -6 -6 -10 -12 -7 -25 10 -14 19 -20 21 -38 11 -18 -9 -19
-15 -11 -43 5 -18 16 -36 24 -41 8 -4 15 -12 15 -17 0 -10 -59 -8 -77 3 -8 5
-22 0 -35 -13 -13 -12 -31 -19 -40 -16 -11 2 -18 -1 -18 -11 0 -8 8 -17 19
-20 15 -4 18 -13 16 -46 -3 -53 1 -60 28 -45 19 9 20 9 10 -3 -18 -22 -9 -88
20 -153 15 -32 27 -63 27 -68 0 -6 6 -22 14 -36 7 -15 20 -42 27 -60 12 -27
27 -39 79 -61 36 -15 86 -33 113 -40 44 -13 72 -31 47 -31 -6 0 -63 20 -128
44 -64 25 -157 59 -207 76 -271 95 -252 93 -344 31 -31 -20 -160 -108 -288
-193 -162 -109 -238 -155 -251 -151 -11 2 -23 0 -26 -6 -8 -12 -260 -6 -420 9
-54 6 -122 10 -151 10 -38 0 -55 4 -59 15 -8 23 -17 19 -70 -32 -28 -26 -52
-41 -54 -34 -4 12 -15 24 -56 59 -30 26 -28 37 10 46 15 4 33 14 41 22 21 21
1 65 -46 101 -20 15 -41 33 -46 41 -12 15 -88 35 -79 20 3 -5 0 -15 -6 -24
-11 -12 -14 -12 -25 3 -11 14 -13 10 -19 -28 -4 -24 -11 -51 -16 -59 -8 -13
-11 -12 -25 5 -14 19 -15 18 -3 -8 11 -26 10 -31 -11 -46 -20 -16 -22 -21 -13
-54 6 -20 7 -39 4 -41 -4 -2 -6 -25 -4 -50 4 -41 8 -48 38 -62 19 -9 34 -18
34 -19 0 -2 -15 -2 -32 -1 -27 1 -33 -3 -34 -21 -1 -20 17 -33 55 -37 8 0 16
-7 19 -15 3 -9 0 -11 -8 -6 -10 6 -12 2 -8 -13 4 -12 2 -22 -3 -22 -5 0 -9 5
-9 10 0 6 -5 10 -11 10 -8 0 -8 -5 1 -15 10 -12 9 -15 -6 -15 -11 0 -24 4 -30
8 -12 8 -25 54 -25 87 0 11 -10 31 -23 45 -13 14 -27 36 -31 50 -10 37 -88
190 -95 190 -4 0 -13 -27 -20 -60 -7 -33 -17 -63 -22 -66 -6 -4 -6 9 -1 33 11
55 6 172 -9 187 -7 7 -40 14 -73 15 -33 1 -77 3 -98 4 -21 2 -41 -1 -44 -6 -3
-4 -10 -4 -16 1 -17 12 -214 16 -221 4 -3 -5 -17 -8 -30 -7 -18 2 -23 -1 -19
-11 4 -10 0 -12 -11 -8 -9 3 -16 14 -16 23 -1 14 -3 13 -15 -3 -11 -14 -15
-16 -15 -5 0 12 -2 12 -10 -1 -8 -12 -10 -12 -10 -1 0 11 -3 11 -15 1 -12 -10
-15 -10 -15 3 0 22 -20 32 -30 16 -5 -7 -6 -17 -4 -21 3 -4 -6 -8 -20 -8 -15
0 -26 6 -28 17 -3 15 -17 18 -108 20 -57 0 -112 -3 -122 -8 -11 -6 -26 -5 -44
3 -22 10 -28 10 -39 -5 -7 -9 -20 -17 -29 -17 -13 0 -16 -8 -14 -35 1 -19 6
-35 10 -35 4 0 8 5 8 10 0 6 9 10 19 10 20 0 23 -30 7 -79 -6 -16 -5 -21 3
-17 7 5 8 1 4 -10 -4 -11 -8 -13 -11 -6 -6 20 -22 14 -22 -9 0 -11 5 -17 10
-14 12 7 12 8 15 -110 3 -82 2 -88 -11 -65 -24 42 -44 92 -44 109 0 10 -27 85
-60 168 -34 84 -58 158 -54 167 5 14 28 16 163 16 86 0 278 -4 426 -10 149 -5
401 -12 560 -15 160 -3 313 -8 340 -11 l50 -6 -20 22 c-16 19 -17 22 -3 17 11
-4 20 3 28 23 16 40 8 59 -23 53 -22 -4 -27 1 -43 42 -15 39 -15 48 -3 55 16
10 101 33 212 56 42 9 77 20 77 25 0 13 -18 11 -117 -11 -79 -18 -190 -43
-250 -56 -35 -7 -27 15 11 31 33 14 33 15 26 57 -5 23 -12 44 -17 45 -5 2 -7
29 -5 61 2 31 3 69 3 85 0 15 5 27 12 27 9 0 12 -11 9 -35 -2 -19 -2 -35 2
-35 12 0 45 78 44 106 -1 31 15 92 34 131 6 12 11 48 12 80 1 38 6 62 16 70
13 10 12 14 -6 35 -22 26 -22 73 1 64 11 -4 12 0 4 21 -5 14 -7 28 -4 31 3 4
8 -4 12 -16 6 -26 20 -29 26 -4 2 9 2 2 0 -15 -2 -19 1 -33 7 -33 5 0 10 18
10 40 0 22 -4 40 -10 40 -5 0 -10 11 -10 25 0 35 -26 85 -58 112 -15 13 -22
23 -16 23 12 0 60 -52 80 -85 6 -11 13 -15 17 -9 3 6 -7 36 -23 66 -29 55 -29
58 -25 178 5 146 9 164 34 150 12 -6 20 -25 23 -55 6 -50 44 -116 83 -141 38
-25 104 -28 185 -10 84 19 118 35 180 85 25 19 38 27 29 16 -52 -63 -73 -170
-55 -280 19 -118 59 -326 72 -369 8 -26 14 -60 14 -75 1 -14 15 -75 33 -136
33 -110 33 -110 77 -133 25 -12 60 -38 77 -56 18 -19 43 -38 55 -42 13 -4 28
-14 35 -23 8 -10 12 -11 13 -4 0 9 10 8 41 -2 23 -8 52 -15 64 -15 13 0 42
-11 66 -24 29 -17 52 -23 71 -19 25 5 28 3 28 -20 0 -25 -25 -55 -37 -44 -3 4
2 9 11 13 9 3 16 10 16 15 0 10 -30 0 -46 -16 -7 -6 -10 -24 -7 -38 4 -20 1
-27 -11 -27 -14 0 -21 17 -17 42 0 4 -5 5 -13 2 -8 -3 -17 -1 -21 5 -3 6 -1
11 6 11 8 0 8 4 -1 15 -14 16 -38 19 -58 7 -10 -7 -10 -14 1 -35 8 -15 17 -25
21 -22 3 3 2 0 -3 -6 -14 -17 -41 -3 -41 21 0 11 -5 20 -10 20 -6 0 -15 10
-20 23 -8 20 -9 20 -9 -9 -1 -30 -19 -94 -27 -94 -15 0 -41 36 -37 51 7 25 3
24 -54 -9 -27 -16 -60 -32 -76 -35 -15 -4 -27 -12 -27 -18 0 -6 8 -8 18 -5 15
5 21 -5 37 -69 16 -65 17 -78 4 -102 -7 -16 -15 -31 -17 -36 -2 -4 20 -19 50
-33 29 -14 64 -32 78 -40 48 -26 76 -18 158 49 103 83 103 82 287 199 248 156
234 150 280 133 22 -7 62 -23 88 -34 27 -12 52 -21 57 -21 4 0 -6 26 -21 58
-16 31 -29 65 -29 75 0 10 -7 20 -16 24 -11 4 -14 13 -9 30 3 13 3 28 0 34 -4
5 -8 43 -11 85 -2 42 -9 84 -15 93 -7 11 -9 -11 -6 -79 4 -104 -5 -158 -18
-107 -6 24 -12 28 -32 24 -16 -3 -28 2 -39 17 -8 11 -18 20 -22 18 -4 -1 -8 8
-10 20 -2 20 -1 21 8 6 17 -28 30 -21 31 15 0 27 2 29 9 12 5 -11 9 -14 9 -7
2 27 21 0 21 -29 0 -16 5 -29 10 -29 6 0 10 39 10 96 0 66 -3 93 -11 88 -6 -3
-9 -17 -6 -30 2 -13 0 -24 -4 -24 -5 0 -9 -9 -9 -20 0 -28 -23 -21 -32 10 -8
26 6 54 44 92 16 16 19 28 15 61 -11 83 -30 172 -39 178 -5 3 -11 30 -13 60
-2 30 -13 83 -24 119 -25 77 -28 118 -8 102 10 -9 18 -1 35 33 20 41 42 59 42
35 0 -5 6 -10 13 -10 36 0 147 -145 147 -193 0 -8 7 -17 14 -20 10 -4 13 -1 9
9 -3 8 1 14 10 14 8 0 17 -6 20 -12 4 -10 7 -10 18 0 9 9 10 12 1 12 -7 0 -12
11 -12 25 0 14 -5 25 -11 25 -5 0 -7 5 -4 10 3 6 1 10 -4 10 -6 0 -11 5 -11
10 0 6 11 8 27 4 22 -6 25 -4 20 10 -4 10 -3 15 3 11 6 -3 10 -21 11 -38 0
-30 1 -31 11 -9 8 16 8 32 1 57 -12 36 5 75 31 75 8 0 16 9 19 20 3 11 11 20
19 20 10 0 9 -3 -2 -10 -13 -8 -13 -10 2 -10 12 0 16 -5 12 -17 -5 -14 -4 -15
4 -4 6 8 8 20 5 27 -2 7 5 18 17 24 27 14 54 -4 47 -32 -3 -10 2 -23 11 -29
12 -7 14 -12 5 -15 -15 -7 -18 -90 -3 -99 6 -3 10 -13 10 -21 0 -8 -4 -13 -9
-10 -5 4 -12 -8 -16 -25 -6 -25 -3 -34 15 -46 20 -14 21 -17 6 -25 -18 -10
-22 -28 -6 -28 6 0 19 14 29 31 15 25 17 37 9 66 -17 63 -18 77 -4 92 7 9 17
47 20 86 4 38 10 72 15 75 5 3 12 54 16 115 9 140 26 204 65 246 31 34 40 56
18 43 -7 -5 -33 -20 -57 -36 -24 -15 -47 -25 -52 -23 -4 3 -19 1 -33 -5 -16
-6 -27 -6 -31 0 -4 6 -14 10 -24 10 -24 0 -101 77 -101 101 0 11 9 45 20 76
24 70 25 82 3 100 -15 12 -15 14 -2 10 9 -3 22 -1 29 3 21 13 41 1 112 -69z
m-2072 51 c0 -14 -11 -21 -26 -15 -21 8 -17 23 6 23 11 0 20 -4 20 -8z m-1205
-42 c3 -5 1 -10 -4 -10 -6 0 -11 5 -11 10 0 6 2 10 4 10 3 0 8 -4 11 -10z m55
-5 c10 -12 10 -15 -3 -15 -8 0 -20 7 -27 15 -10 12 -10 15 3 15 8 0 20 -7 27
-15z m-2577 -65 c26 -16 50 -30 53 -30 15 0 145 -95 135 -98 -7 -2 -23 5 -35
17 -12 12 -25 19 -28 16 -3 -3 -11 1 -18 10 -7 8 -19 15 -26 15 -8 0 -14 4
-14 8 0 5 -29 24 -65 43 -36 18 -65 37 -65 41 0 14 15 9 63 -22z m2497 -7 c0
-20 -24 -11 -28 10 -2 12 1 15 12 11 9 -3 16 -13 16 -21z m1897 1 c56 -81 72
-93 126 -96 49 -3 52 -4 49 -28 -2 -14 -9 -31 -14 -37 -6 -7 -11 -30 -12 -51
-3 -46 -44 -149 -64 -157 -22 -8 -27 2 -15 28 7 15 8 29 1 41 -5 9 -10 37 -10
62 0 53 -13 58 -23 7 l-7 -37 -18 42 c-21 46 -50 57 -50 19 0 -24 -27 -87 -37
-87 -3 0 -2 12 1 28 4 15 12 47 18 72 6 25 11 84 12 133 1 94 11 108 43 61z
m-1617 -55 c0 -5 6 -22 14 -37 7 -15 17 -37 20 -49 6 -19 4 -22 -21 -21 -15 0
-48 -2 -73 -6 -33 -6 -50 -4 -65 7 -19 14 -19 16 -2 34 22 25 22 33 -2 33 -35
0 -17 33 39 71 l54 37 18 -29 c10 -16 18 -34 18 -40z m1170 52 c18 -7 -50 -20
-74 -15 -31 7 -31 7 -6 14 22 5 67 6 80 1z m-1416 -38 c4 -5 24 -8 44 -8 28 0
37 -5 40 -19 5 -24 -8 -36 -48 -43 -18 -2 -40 -11 -48 -19 -19 -20 -56 -14
-60 9 -2 11 -1 34 3 53 5 29 10 34 34 34 15 0 31 -3 35 -7z m432 -47 c-7 -43
-25 -75 -22 -38 1 11 -6 17 -21 17 -11 0 -24 3 -28 7 -4 4 -13 4 -21 1 -9 -3
-14 1 -14 12 0 9 5 13 10 10 6 -3 10 -3 10 2 0 4 14 9 32 10 18 1 36 10 41 19
14 25 20 8 13 -40z m1074 44 c0 -5 -5 -10 -11 -10 -5 0 -7 5 -4 10 3 6 8 10
11 10 2 0 4 -4 4 -10z m-181 -61 c-14 -8 -29 -3 -29 11 0 4 9 6 21 3 15 -4 17
-8 8 -14z m1861 -66 c0 -8 -39 14 -62 35 -46 42 -32 46 17 5 25 -20 45 -38 45
-40z m-1813 61 c-3 -3 -12 -4 -19 -1 -8 3 -5 6 6 6 11 1 17 -2 13 -5z m150 -2
c8 -5 6 -13 -6 -27 -26 -31 -41 -29 -41 5 0 30 19 40 47 22z m-5003 -42 c-15
-22 -31 -40 -36 -40 -5 0 5 18 22 40 17 22 34 40 36 40 2 0 -8 -18 -22 -40z
m4886 -2 c0 -26 -9 -19 -15 11 -2 12 0 19 6 16 5 -4 9 -16 9 -27z m30 18 c0
-3 -4 -8 -10 -11 -5 -3 -10 -1 -10 4 0 6 5 11 10 11 6 0 10 -2 10 -4z m-3686
-45 c-2 -3 -12 3 -22 13 -16 17 -16 18 5 5 12 -7 20 -15 17 -18z m5346 14 c0
-8 6 -12 14 -9 7 3 33 -6 58 -20 45 -25 54 -25 136 -1 27 9 27 9 -1 -130 -29
-145 -32 -149 -82 -131 -78 27 -111 35 -192 47 -46 6 -83 12 -83 14 0 3 28 63
60 127 15 31 31 54 34 51 6 -6 10 13 7 31 -3 13 20 36 35 36 8 0 14 -7 14 -15z
m-393 -19 c17 11 19 8 19 -23 0 -31 -1 -33 -13 -16 -10 13 -16 15 -21 6 -6 -9
-15 -7 -37 7 -22 14 -25 20 -12 20 9 0 17 7 17 17 0 15 2 14 14 -3 12 -15 18
-17 33 -8z m-177 -2 c0 -8 -4 -12 -10 -9 -5 3 -10 10 -10 16 0 5 5 9 10 9 6 0
10 -7 10 -16z m-70 -8 c0 -27 -20 -67 -30 -61 -14 9 -13 48 2 63 16 16 28 15
28 -2z m60 -60 c0 -24 -2 -27 -15 -16 -17 14 -19 7 -5 -20 7 -13 6 -22 -3 -32
-7 -7 -17 -22 -21 -33 -13 -32 -18 0 -7 42 6 21 11 56 11 79 0 22 3 44 7 48
10 10 32 -35 33 -68z m-6044 16 c-15 -15 -15 -15 -4 10 7 15 15 23 17 17 2 -6
-4 -18 -13 -27z m5804 29 c0 -6 -4 -13 -10 -16 -5 -3 -10 1 -10 9 0 9 5 16 10
16 6 0 10 -4 10 -9z m-1145 -56 c-2 -30 -6 -59 -10 -65 -3 -5 -1 -10 4 -10 17
0 13 -17 -5 -24 -14 -5 -15 3 -11 64 5 63 12 90 22 90 2 0 2 -25 0 -55z m-993
11 c4 -6 10 -7 14 -3 4 4 13 2 19 -3 9 -7 21 -7 39 0 34 12 36 12 36 0 0 -15
-50 -33 -85 -31 -37 3 -105 40 -105 57 0 9 9 10 38 1 20 -6 40 -16 44 -21z
m935 -33 c-2 -16 -4 -5 -4 22 0 28 2 40 4 28 2 -13 2 -35 0 -50z m-3237 42 c7
-8 8 -15 2 -15 -5 0 -15 7 -22 15 -7 8 -8 15 -2 15 5 0 15 -7 22 -15z m2196
-84 c6 -52 4 -63 -7 -59 -9 3 -16 26 -20 59 -4 30 -10 65 -14 79 l-8 25 21
-20 c15 -14 23 -39 28 -84z m992 62 c-2 -9 -9 -18 -16 -19 -7 -1 -8 0 -2 3 8
3 7 9 -1 19 -9 11 -8 14 6 14 10 0 15 -6 13 -17z m-4554 -63 c3 -36 2 -59 -2
-52 -9 13 -17 131 -9 122 2 -3 7 -34 11 -70z m4486 62 c0 -13 -46 -35 -62 -30
-8 3 -2 11 17 21 34 18 45 21 45 9z m1477 -39 c-3 -10 -5 -4 -5 12 0 17 2 24
5 18 2 -7 2 -21 0 -30z m316 -10 c5 -26 4 -26 -9 -9 -7 10 -11 23 -8 27 8 14
11 11 17 -18z m-865 -31 c6 -18 -15 -14 -22 4 -4 10 -1 14 6 12 6 -2 14 -10
16 -16z m-3864 -69 c57 -64 39 -52 -29 18 -33 34 -49 54 -35 43 14 -10 42 -38
64 -61z m3123 5 c-3 -7 -5 -2 -5 12 0 14 2 19 5 13 2 -7 2 -19 0 -25z m-360
-40 c44 -64 49 -76 20 -49 -15 14 -27 31 -27 38 0 7 -11 18 -25 25 -13 6 -22
15 -19 19 10 16 21 9 51 -33z m355 0 c-7 -7 -12 -8 -12 -2 0 14 12 26 19 19 2
-3 -1 -11 -7 -17z m722 7 c-6 -16 -24 -21 -24 -7 0 11 11 22 21 22 5 0 6 -7 3
-15z m1106 -35 c0 -5 -4 -10 -9 -10 -5 0 -18 -3 -28 -7 -16 -6 -16 -5 -4 10
15 19 41 23 41 7z m-1163 -42 c-25 -16 -37 -8 -20 12 12 14 19 16 25 8 4 -7 2
-16 -5 -20z m1133 2 c0 -5 -7 -10 -15 -10 -8 0 -15 5 -15 10 0 6 7 10 15 10 8
0 15 -4 15 -10z m-1187 -45 c-3 -9 -8 -14 -10 -11 -3 3 -2 9 2 15 9 16 15 13
8 -4z m-5006 -1 c-3 -3 -12 -4 -19 -1 -8 3 -5 6 6 6 11 1 17 -2 13 -5z m1414
-16 c11 -21 11 -22 -4 -9 -10 7 -17 17 -17 22 0 15 9 10 21 -13z m-1291 -24
c0 -2 -7 -4 -15 -4 -8 0 -15 4 -15 10 0 5 7 7 15 4 8 -4 15 -8 15 -10z m5712
-23 c-2 -16 1 -32 7 -35 18 -11 13 -37 -6 -35 -40 4 -44 0 -27 -27 17 -24 16
-24 -37 8 -30 18 -56 33 -58 35 -5 3 70 67 88 75 30 13 38 8 33 -21z m-774
-14 c4 -20 -25 -34 -40 -19 -15 15 -1 44 19 40 10 -2 19 -11 21 -21z m33 -38
c-6 -16 -10 -18 -10 -7 -1 22 12 55 16 42 2 -6 -1 -22 -6 -35z m-3617 15 c5
-14 4 -15 -9 -4 -17 14 -19 20 -6 20 5 0 12 -7 15 -16z m4123 -6 c-3 -8 -6 -5
-6 6 -1 11 2 17 5 13 3 -3 4 -12 1 -19z m-1200 -30 c-3 -8 -6 -5 -6 6 -1 11 2
17 5 13 3 -3 4 -12 1 -19z m-2887 -9 c0 -6 -4 -7 -10 -4 -5 3 -10 11 -10 16 0
6 5 7 10 4 6 -3 10 -11 10 -16z m4041 -32 c-8 -8 -11 -7 -11 4 0 20 13 34 18
19 3 -7 -1 -17 -7 -23z m-1101 2 c-7 -11 -14 -18 -17 -15 -3 3 0 12 7 21 18
21 23 19 10 -6z m711 -6 c-8 -15 -10 -15 -11 -2 0 17 10 32 18 25 2 -3 -1 -13
-7 -23z m-3594 -60 c26 -43 56 -96 66 -118 18 -39 18 -40 -1 -20 -10 11 -30
46 -45 77 -15 31 -31 59 -36 63 -9 5 -41 62 -41 72 0 12 15 -7 57 -74z m5263
62 c-7 -8 -16 -15 -21 -15 -5 0 -9 7 -9 15 0 9 9 15 21 15 18 0 19 -2 9 -15z
m-1720 -20 c0 -8 -4 -15 -10 -15 -5 0 -10 7 -10 15 0 8 5 15 10 15 6 0 10 -7
10 -15z m770 -45 c0 -5 6 -15 13 -22 22 -23 49 -70 43 -75 -7 -7 -36 16 -36
29 0 5 -16 32 -35 61 -41 60 -46 82 -10 43 14 -15 25 -31 25 -36z m775 41 c3
-5 1 -12 -5 -16 -5 -3 -10 1 -10 9 0 18 6 21 15 7z m-4326 -32 l16 -24 -24 16
c-14 9 -27 22 -29 29 -7 21 20 6 37 -21z m2048 -11 c-3 -7 -5 -2 -5 12 0 14 2
19 5 13 2 -7 2 -19 0 -25z m-3812 -48 c12 -19 -12 -10 -31 11 -19 22 -19 22 3
10 12 -6 25 -16 28 -21z m-855 15 c0 -2 -22 -14 -50 -26 -27 -12 -55 -27 -61
-35 -6 -8 -16 -14 -22 -14 -5 0 -2 9 9 21 27 30 124 73 124 54z m153 -12 c-7
-2 -21 -2 -30 0 -10 3 -4 5 12 5 17 0 24 -2 18 -5z m3067 -8 c0 -8 -2 -15 -4
-15 -2 0 -6 7 -10 15 -3 8 -1 15 4 15 6 0 10 -7 10 -15z m-527 -2 c-7 -2 -21
-2 -30 0 -10 3 -4 5 12 5 17 0 24 -2 18 -5z m-1783 -41 c0 -1 -9 2 -20 8 -11
6 -20 15 -20 20 0 6 9 2 20 -7 11 -10 20 -19 20 -21z m1806 -29 c-8 -9 -46 32
-46 50 0 7 12 -1 27 -15 15 -15 23 -31 19 -35z m4859 47 c3 -5 15 -10 26 -10
11 0 37 -11 58 -24 36 -23 38 -27 45 -91 13 -126 49 -314 102 -539 27 -112 28
-120 14 -111 -5 3 -10 15 -10 26 0 34 -41 143 -62 166 -11 12 -18 29 -15 37 3
7 0 38 -8 68 -7 29 -16 66 -19 81 -4 15 -11 25 -16 22 -6 -3 -10 -2 -10 3 0 5
-6 9 -13 9 -7 0 -13 -10 -13 -21 1 -13 -8 -25 -21 -31 -13 -5 -23 -13 -23 -17
0 -5 -3 -8 -8 -8 -4 0 -6 17 -4 38 3 27 -2 44 -17 61 -12 13 -21 27 -21 31 0
12 26 30 33 23 4 -3 7 12 7 35 0 26 -4 41 -11 40 -6 -2 -14 3 -16 10 -3 6 2
12 10 12 10 0 16 13 20 38 5 41 -1 61 -13 42 -10 -16 -30 -4 -30 17 0 10 6 14
20 10 15 -4 20 0 20 14 0 10 -5 19 -11 19 -5 0 -8 4 -5 9 3 5 -6 11 -21 14
-20 4 -39 -3 -69 -24 -77 -53 -78 -55 -41 -94 52 -55 67 -74 67 -85 0 -23 -19
-7 -48 39 -20 32 -36 49 -48 48 -13 -1 -18 4 -16 16 4 24 -7 21 -35 -9 -13
-14 -45 -37 -71 -51 -65 -35 -113 -78 -100 -91 6 -6 8 -18 5 -26 -9 -22 -40
-8 -34 15 4 16 2 17 -14 8 -29 -15 -24 7 6 27 23 15 24 18 9 28 -20 15 -15 50
9 54 12 2 17 -3 17 -17 0 -13 -7 -21 -17 -21 -17 -1 -17 -1 -1 -11 20 -11 72
16 62 33 -3 5 -3 16 0 24 4 12 9 12 25 3 15 -10 23 -9 46 9 15 12 32 22 37 22
5 0 16 6 24 14 7 8 19 16 26 18 8 3 5 11 -8 24 -20 20 -50 21 -38 2 5 -7 -2
-9 -20 -6 -14 3 -26 1 -26 -3 0 -5 -13 -9 -30 -9 -24 0 -30 -4 -30 -22 0 -18
-2 -20 -9 -9 -8 12 -12 12 -25 2 -9 -8 -16 -20 -16 -27 0 -15 -16 -19 -24 -5
-3 4 11 24 32 42 31 29 59 43 132 64 3 1 19 8 35 15 17 7 62 19 100 25 91 17
93 17 100 5z m-2815 -16 c0 -8 -4 -12 -10 -9 -5 3 -10 10 -10 16 0 5 5 9 10 9
6 0 10 -7 10 -16z m1077 -51 c-2 -16 -4 -5 -4 22 0 28 2 40 4 28 2 -13 2 -35
0 -50z m111 32 c14 -31 15 -46 2 -25 -7 11 -10 3 -10 -30 0 -29 3 -40 9 -31
10 15 31 7 31 -12 0 -7 -4 -6 -10 3 -6 9 -10 10 -10 3 0 -6 5 -15 10 -18 6 -3
10 -15 10 -26 0 -17 -11 -24 -32 -20 -5 0 -8 -8 -8 -19 0 -13 5 -17 14 -14 9
3 17 -3 21 -16 5 -17 10 -19 21 -10 7 7 12 17 11 23 -1 6 6 13 16 15 12 2 17
-3 18 -20 l0 -23 11 23 c11 22 48 31 48 12 0 -5 5 -10 10 -10 6 0 10 6 10 14
0 8 7 16 15 20 23 8 18 -8 -10 -34 -14 -13 -25 -31 -25 -41 0 -10 -6 -22 -12
-26 -8 -5 -13 -33 -14 -72 -1 -47 -6 -68 -18 -76 -9 -7 -16 -19 -16 -28 0 -9
-6 -20 -14 -24 -7 -4 -16 -15 -20 -23 -3 -8 -4 -5 -2 7 2 13 0 25 -4 28 -4 3
-6 14 -3 25 5 17 0 20 -26 20 -25 0 -31 -4 -32 -22 -2 -23 -2 -23 -6 1 -4 22
-8 23 -59 19 -36 -3 -53 -1 -51 6 2 6 27 11 56 11 39 -1 50 3 46 13 -3 8 -5
26 -6 40 0 24 -1 25 -9 7 -9 -20 -15 -7 -10 24 1 8 -4 17 -10 21 -8 5 -7 12 4
23 24 24 21 40 -5 27 -18 -10 -20 -9 -17 12 2 15 11 24 26 26 17 3 22 10 21
30 -1 18 -3 21 -6 9 -8 -30 -28 -13 -31 28 -3 30 0 37 12 32 11 -4 13 -1 9 10
-4 11 -2 14 5 9 9 -5 12 9 12 48 0 60 10 71 28 31z m-5007 -12 c13 -16 12 -17
-3 -4 -10 7 -18 15 -18 17 0 8 8 3 21 -13z m4966 -13 c-2 -29 -17 -24 -17 6 0
14 4 23 9 19 6 -3 9 -14 8 -25z m396 -40 c3 0 4 17 1 38 -4 36 -4 36 6 7 6
-16 8 -38 6 -47 -2 -10 0 -18 6 -18 5 0 7 -4 4 -9 -3 -5 1 -28 9 -51 8 -24 13
-45 11 -48 -11 -10 -26 11 -32 45 -4 21 -16 46 -26 58 -11 11 -29 38 -39 60
l-20 40 34 -37 c19 -21 37 -38 40 -38z m-3033 27 c-1 -21 -1 -21 -15 -3 -8 10
-12 23 -9 28 9 14 24 -2 24 -25z m-3438 -19 c-7 -7 -12 -8 -12 -2 0 14 12 26
19 19 2 -3 -1 -11 -7 -17z m1149 5 c13 -16 12 -17 -3 -4 -10 7 -18 15 -18 17
0 8 8 3 21 -13z m4456 -15 c-3 -8 -6 -5 -6 6 -1 11 2 17 5 13 3 -3 4 -12 1
-19z m1491 1 c-7 -5 -30 -14 -50 -19 -21 -6 -38 -16 -38 -21 0 -11 7 -10 68 7
18 5 22 2 22 -15 0 -11 5 -21 11 -21 8 0 7 -6 -2 -16 -12 -15 -14 -14 -20 7
-5 24 -5 24 -21 -6 -8 -16 -13 -37 -11 -45 3 -11 2 -12 -4 -2 -18 25 -79 1
-68 -27 5 -13 4 -14 -7 -3 -7 7 -13 23 -14 35 -1 12 -5 30 -9 40 -5 13 -2 17
14 17 14 0 19 5 15 15 -3 8 -13 13 -22 12 -10 -1 -18 3 -19 8 -1 6 25 15 58
21 33 6 65 16 71 22 6 6 17 8 25 5 12 -5 12 -7 1 -14z m-3318 6 c0 -6 -56 -35
-67 -35 -4 0 6 9 22 20 29 19 45 25 45 15z m1117 -17 c-3 -8 -6 -5 -6 6 -1 11
2 17 5 13 3 -3 4 -12 1 -19z m3063 -32 c0 -18 -3 -17 -20 9 -26 39 -26 53 0
30 11 -10 20 -28 20 -39z m-285 34 c9 -15 -3 -30 -20 -24 -7 3 -11 12 -8 20 6
16 19 18 28 4z m-7689 -22 c-16 -78 -14 -105 9 -161 21 -53 22 -57 4 -41 -10
9 -19 25 -19 35 0 10 -4 21 -10 24 -11 7 -13 106 -4 143 4 12 10 22 15 22 5 0
7 -10 5 -22z m1219 -17 c58 -71 108 -142 137 -194 80 -143 95 -179 58 -139
-11 12 -20 27 -20 35 0 7 -13 34 -30 60 -16 26 -30 50 -30 52 0 9 -68 110 -89
132 -12 12 -21 27 -21 32 0 5 -11 18 -25 29 -14 11 -25 23 -25 27 0 10 23 -7
45 -34z m4390 20 c0 -22 -34 -39 -44 -22 -5 8 -7 20 -4 28 7 18 48 13 48 -6z
m738 -1 c3 -11 1 -18 -4 -14 -5 3 -9 12 -9 20 0 20 7 17 13 -6z m-4189 -6 c3
-8 2 -12 -4 -9 -6 3 -10 10 -10 16 0 14 7 11 14 -7z m1976 6 c22 -7 21 -8 -12
-9 -21 -1 -38 4 -38 9 0 11 14 11 50 0z m-1170 -15 c7 -8 9 -15 4 -16 -5 0 1
-4 14 -10 13 -5 20 -14 17 -19 -4 -7 3 -8 21 -4 17 5 25 3 21 -3 -7 -11 -47
-20 -129 -29 -43 -5 -53 -13 -49 -36 0 -5 -11 -8 -25 -8 l-26 0 23 20 c23 18
23 19 4 21 -11 1 -4 5 15 9 31 7 32 7 8 9 -16 0 -28 6 -28 12 0 6 11 8 28 5
87 -17 104 -18 112 -6 8 13 -28 57 -43 52 -5 -1 -6 2 -2 8 9 14 20 13 35 -5z
m540 0 c0 -8 -4 -15 -10 -15 -5 0 -10 7 -10 15 0 8 5 15 10 15 6 0 10 -7 10
-15z m2538 -22 c-3 -15 -6 -15 -17 6 -8 14 -9 21 -2 17 6 -4 11 -1 12 6 0 10
2 10 6 1 2 -7 3 -21 1 -30z m352 22 c0 -1 -10 -10 -21 -21 -22 -19 -22 -19
-11 2 6 12 8 24 4 28 -3 4 1 4 11 0 9 -3 17 -7 17 -9z m-3509 -18 c-10 -9 -11
-8 -5 6 3 10 9 15 12 12 3 -3 0 -11 -7 -18z m5039 4 c0 -6 -4 -13 -10 -16 -5
-3 -10 1 -10 9 0 9 5 16 10 16 6 0 10 -4 10 -9z m-5705 -116 c7 -16 15 -39 18
-50 3 -11 9 -31 12 -44 5 -16 4 -21 -4 -17 -6 4 -11 15 -11 26 0 10 -8 35 -19
57 -19 41 -40 96 -47 128 -5 19 25 -39 51 -100z m2662 74 c-13 -30 -15 -31
-13 -9 2 28 15 54 23 47 2 -3 -3 -20 -10 -38z m1516 -12 c-3 -5 -9 -3 -14 4
-4 7 -5 17 -2 22 3 5 9 3 14 -4 4 -7 5 -17 2 -22z m64 -19 c-3 -8 -6 -5 -6 6
-1 11 2 17 5 13 3 -3 4 -12 1 -19z m407 7 c-4 -8 -10 -12 -15 -9 -14 8 -10 24
6 24 9 0 12 -6 9 -15z m1136 -1 c0 -8 -4 -12 -10 -9 -5 3 -10 10 -10 16 0 5 5
9 10 9 6 0 10 -7 10 -16z m-880 -14 c0 -5 -4 -10 -10 -10 -5 0 -10 5 -10 10 0
6 5 10 10 10 6 0 10 -4 10 -10z m500 0 c0 -5 -4 -10 -10 -10 -5 0 -10 5 -10
10 0 6 5 10 10 10 6 0 10 -4 10 -10z m-1225 -19 c-3 -6 -11 -11 -16 -11 -5 0
-4 6 3 14 14 16 24 13 13 -3z m510 10 c3 -5 1 -12 -5 -16 -5 -3 -10 1 -10 9 0
18 6 21 15 7z m135 -11 c0 -5 -4 -10 -10 -10 -5 0 -10 5 -10 10 0 6 5 10 10
10 6 0 10 -4 10 -10z m500 0 c0 -5 -4 -10 -10 -10 -5 0 -10 5 -10 10 0 6 5 10
10 10 6 0 10 -4 10 -10z m-3520 -10 c0 -5 -5 -10 -11 -10 -5 0 -7 5 -4 10 3 6
8 10 11 10 2 0 4 -4 4 -10z m2930 -3 c0 -7 -9 -23 -20 -35 -11 -12 -20 -26
-20 -31 0 -6 -7 -8 -15 -5 -22 9 -19 21 15 54 34 33 40 36 40 17z m140 -3 c0
-8 -5 -12 -10 -9 -6 4 -8 11 -5 16 9 14 15 11 15 -7z m380 12 c0 -15 -14 -35
-21 -30 -15 9 -10 34 6 34 8 0 15 -2 15 -4z m270 -27 c0 -6 -4 -7 -10 -4 -5 3
-10 11 -10 16 0 6 5 7 10 4 6 -3 10 -11 10 -16z m-1285 -33 c3 -35 -17 -77
-31 -64 -4 4 -2 13 4 21 6 7 9 26 7 42 -3 30 3 51 12 42 2 -3 6 -21 8 -41z
m-3450 24 c3 -5 1 -10 -4 -10 -6 0 -11 5 -11 10 0 6 2 10 4 10 3 0 8 -4 11
-10z m835 6 c0 -3 -4 -8 -10 -11 -5 -3 -10 -1 -10 4 0 6 5 11 10 11 6 0 10 -2
10 -4z m1828 -21 c-3 -3 -9 2 -12 12 -6 14 -5 15 5 6 7 -7 10 -15 7 -18z
m-1713 -4 c-3 -6 -13 -11 -21 -11 -12 0 -12 -2 -2 -14 7 -8 15 -10 18 -6 3 4
26 9 53 12 36 4 47 2 47 -8 0 -8 -5 -14 -12 -14 -6 0 -3 -7 8 -15 18 -14 18
-14 -6 -16 l-25 -1 25 -8 c20 -6 14 -8 -27 -9 -43 -1 -53 -4 -53 -18 -1 -17
-1 -17 -14 0 -7 9 -24 17 -37 17 -13 0 -31 5 -39 10 -12 7 -8 10 15 11 17 0
39 4 50 9 23 10 24 9 -35 17 -61 7 -87 22 -40 23 19 0 49 8 65 19 31 19 42 20
30 2z m2865 -23 c0 -4 -9 -3 -20 4 -11 7 -20 19 -20 27 0 11 5 10 20 -4 11
-10 20 -22 20 -27z m896 18 c18 -19 18 -36 -1 -36 -8 0 -15 5 -15 10 0 6 -11
8 -25 4 -15 -4 -25 -2 -25 5 0 6 6 10 13 9 6 -2 11 3 10 10 -4 17 25 15 43 -2z
m-55 -40 c5 3 9 -2 9 -10 0 -23 -26 -20 -50 6 -22 24 -24 31 -13 42 4 4 16 -4
26 -18 10 -15 23 -24 28 -20z m-111 4 c0 -5 -2 -10 -4 -10 -3 0 -8 5 -11 10
-3 6 -1 10 4 10 6 0 11 -4 11 -10z m-583 -27 c-9 -8 -48 8 -42 18 4 5 14 5 26
-2 12 -6 18 -13 16 -16z m76 -3 c-5 -20 -23 -38 -23 -23 1 22 13 52 20 48 5
-3 6 -14 3 -25z m1083 -64 c53 -19 85 -66 83 -124 -1 -21 -4 -18 -14 18 -7 25
-13 39 -14 33 -1 -7 -8 -13 -18 -13 -9 0 -14 3 -10 6 6 6 -16 34 -26 34 -7 0
4 -42 13 -55 4 -5 15 -37 24 -70 9 -33 21 -69 25 -80 16 -36 32 -107 27 -112
-3 -3 -11 7 -17 23 -20 51 -149 427 -148 433 0 3 10 -14 22 -38 15 -31 31 -48
53 -55z m-656 74 c0 -5 -2 -10 -4 -10 -3 0 -8 5 -11 10 -3 6 -1 10 4 10 6 0
11 -4 11 -10z m-1840 -20 c0 -5 -2 -10 -4 -10 -3 0 -8 5 -11 10 -3 6 -1 10 4
10 6 0 11 -4 11 -10z m1207 -37 c-3 -3 -13 1 -21 10 -8 8 -12 17 -9 20 3 3 12
-1 20 -9 9 -8 13 -18 10 -21z m824 0 c-12 -20 -14 -14 -5 12 4 9 9 14 11 11 3
-2 0 -13 -6 -23z m-706 -2 c-3 -6 -14 -11 -23 -11 -15 1 -15 2 2 15 21 16 32
13 21 -4z m-2948 3 c-3 -3 -12 -4 -19 -1 -8 3 -5 6 6 6 11 1 17 -2 13 -5z
m-1717 -80 c26 -89 53 -237 48 -261 -2 -10 -12 27 -22 82 -10 55 -27 126 -37
158 -18 54 -25 107 -14 95 3 -3 14 -36 25 -74z m5260 62 c0 -11 -19 -15 -25
-6 -3 5 1 10 9 10 9 0 16 -2 16 -4z m-7255 -16 c13 -5 14 -9 5 -9 -8 0 -24 4
-35 9 -13 5 -14 9 -5 9 8 0 24 -4 35 -9z m6691 -1 c3 -6 -1 -18 -10 -27 -15
-15 -16 -14 -16 11 0 27 13 36 26 16z m74 1 c0 -5 -5 -10 -11 -10 -5 0 -7 5
-4 10 3 6 8 10 11 10 2 0 4 -4 4 -10z m-239 -15 c0 -5 -11 -11 -23 -12 -13 -1
-17 0 -10 3 6 3 9 10 6 16 -4 5 1 8 10 6 10 -1 17 -7 17 -13z m-791 -14 c0 -4
-9 -14 -20 -23 -14 -12 -21 -14 -26 -6 -4 7 -2 14 4 16 6 2 9 9 6 17 -4 10 0
12 15 8 12 -3 21 -8 21 -12z m121 -14 c-10 -9 -11 -8 -5 6 3 10 9 15 12 12 3
-3 0 -11 -7 -18z m-4707 -13 c3 -8 2 -12 -4 -9 -6 3 -10 10 -10 16 0 14 7 11
14 -7z m-969 -35 c51 -34 133 -121 169 -178 38 -60 24 -64 -16 -5 -35 52 -130
151 -188 197 -40 32 -24 25 35 -14z m6105 -4 c0 -8 -12 -17 -27 -20 -16 -3
-40 -10 -55 -14 -42 -14 -33 1 15 25 52 26 67 28 67 9z m405 -14 c3 -5 1 -12
-5 -16 -5 -3 -10 1 -10 9 0 18 6 21 15 7z m-5501 -56 c5 -20 4 -27 -3 -20 -5
6 -13 24 -17 40 -4 20 -3 27 3 20 6 -5 14 -23 17 -40z m4924 1 c3 -15 1 -16
-16 -7 -12 6 -33 12 -49 12 -26 2 -25 2 7 9 45 9 54 7 58 -14z m1821 -30 c-1
-6 -5 -22 -9 -36 -8 -25 -8 -24 -9 5 -1 17 -4 41 -7 55 -5 24 -5 24 10 6 9
-11 16 -25 15 -30z m-2110 -48 c0 -61 -3 -76 -9 -55 -8 25 -2 137 6 137 2 0 4
-37 3 -82z m84 75 c-7 -2 -19 -2 -25 0 -7 3 -2 5 12 5 14 0 19 -2 13 -5z
m-2230 -50 c-7 -2 -21 -2 -30 0 -10 3 -4 5 12 5 17 0 24 -2 18 -5z m-4114 -7
c-2 -2 -26 -6 -54 -10 -36 -5 -46 -4 -35 3 13 10 99 16 89 7z m124 -3 c-7 -2
-19 -2 -25 0 -7 3 -2 5 12 5 14 0 19 -2 13 -5z m1524 -35 c-3 -8 -6 -5 -6 6
-1 11 2 17 5 13 3 -3 4 -12 1 -19z m4564 -41 c-8 -8 -11 -2 -11 19 0 40 14 54
18 19 2 -15 -1 -32 -7 -38z m-6362 39 c-2 -2 -20 -11 -39 -20 l-35 -17 25 20
c14 11 31 21 39 21 8 0 12 -2 10 -4z m6275 -68 c-5 -8 -10 -5 -14 8 -10 25 0
41 12 20 5 -9 6 -21 2 -28z m-6402 -19 c-61 -60 -106 -135 -126 -210 -13 -46
-15 -49 -15 -21 -1 18 3 40 8 50 5 9 17 33 26 52 35 73 47 90 96 134 69 62 75
58 11 -5z m1957 -54 c0 -23 -2 -26 -9 -15 -5 8 -9 35 -9 60 1 41 2 42 9 15 4
-16 8 -43 9 -60z m-855 59 c3 -8 2 -12 -4 -9 -6 3 -10 10 -10 16 0 14 7 11 14
-7z m1675 -104 c1 -26 -2 -31 -9 -20 -5 8 -9 42 -9 75 1 58 2 59 10 20 4 -22
8 -56 8 -75z m701 75 c0 -10 -11 -15 -32 -16 -18 0 -27 -3 -19 -6 11 -5 11 -7
0 -14 -9 -6 -2 -9 23 -9 21 0 46 7 57 17 29 24 67 24 110 -1 l40 -22 -40 -17
c-22 -9 -76 -53 -122 -97 -45 -44 -83 -76 -85 -70 -2 5 4 17 12 26 18 17 21
34 7 34 -5 0 -18 3 -28 6 -16 5 -16 4 2 -11 19 -16 18 -16 -18 -10 -24 5 -42
3 -52 -5 -31 -26 -34 2 -5 57 17 31 30 62 30 70 0 8 7 21 16 30 8 9 13 21 10
29 -6 16 9 22 57 23 27 1 37 -3 37 -14z m4947 -7 c-3 -8 -6 -5 -6 6 -1 11 2
17 5 13 3 -3 4 -12 1 -19z m-7298 -33 c0 -5 -4 -3 -9 5 -5 8 -9 22 -9 30 0 16
17 -16 18 -35z m3138 9 c-3 -3 -12 -4 -19 -1 -8 3 -5 6 6 6 11 1 17 -2 13 -5z
m680 -10 c-3 -3 -12 -4 -19 -1 -8 3 -5 6 6 6 11 1 17 -2 13 -5z m40 0 c-3 -3
-12 -4 -19 -1 -8 3 -5 6 6 6 11 1 17 -2 13 -5z m-1697 -8 c0 -2 -7 -6 -15 -10
-8 -3 -15 -1 -15 4 0 6 7 10 15 10 8 0 15 -2 15 -4z m2107 -28 c-3 -7 -5 -2
-5 12 0 14 2 19 5 13 2 -7 2 -19 0 -25z m-3425 -237 c-9 -168 -21 -151 -17 24
5 222 7 234 15 145 4 -41 5 -117 2 -169z m2228 226 c0 -20 -30 -57 -46 -57 -8
0 -21 14 -28 30 -13 31 -26 30 -26 -1 0 -10 -10 -25 -22 -33 -29 -20 -48 -4
-48 40 l0 34 85 0 c62 0 85 -3 85 -13z m85 2 c10 -16 -24 -49 -43 -42 -20 8
-32 23 -32 41 0 15 66 17 75 1z m80 -15 c-24 -18 -55 -18 -55 -1 0 21 7 24 42
19 29 -4 30 -6 13 -18z m-3211 -27 c5 -27 4 -37 -3 -32 -6 3 -11 22 -11 42 0
44 5 41 14 -10z m2550 19 c10 -12 24 -32 30 -46 6 -14 19 -25 30 -25 11 0 21
-6 24 -13 3 -9 -3 -13 -19 -11 -13 2 -30 -1 -38 -6 -12 -7 -11 -10 5 -16 12
-5 -1 -8 -38 -8 -32 -1 -58 -5 -58 -11 0 -5 -7 -10 -15 -10 -8 0 -15 -7 -15
-15 0 -19 42 -20 70 -2 17 10 22 9 30 -3 8 -13 12 -13 36 1 25 15 27 15 50 -8
14 -13 22 -29 19 -34 -4 -5 1 -9 9 -9 11 0 16 9 16 29 0 41 18 48 45 20 12
-13 31 -32 41 -41 37 -32 44 -48 38 -73 -3 -14 -10 -23 -14 -20 -4 3 1 -12 12
-33 16 -30 18 -48 13 -92 -4 -30 -8 -65 -9 -77 -1 -27 -9 -29 -26 -8 -9 11
-13 51 -14 120 0 58 -1 105 -2 105 -1 0 -17 7 -36 15 -29 11 -39 12 -53 1 -16
-12 -16 -15 1 -71 12 -37 25 -60 36 -63 13 -3 18 -14 17 -41 0 -20 -3 -30 -6
-23 -8 21 -28 13 -42 -19 -7 -16 -15 -28 -17 -26 -3 2 -9 30 -14 61 -6 31 -14
82 -20 113 -11 65 -43 109 -61 83 -5 -8 -7 -31 -3 -50 3 -19 8 -55 11 -80 3
-25 9 -50 14 -56 9 -12 6 -65 -6 -96 -10 -27 -25 -11 -25 25 0 18 -6 57 -14
87 -7 30 -17 76 -20 103 -8 55 -19 59 -42 16 -12 -24 -14 -43 -8 -83 7 -47 8
-49 15 -21 5 24 7 19 8 -26 1 -51 -1 -57 -24 -67 -35 -16 -35 -17 -35 26 0 44
-31 170 -55 226 -9 23 -14 49 -10 66 4 20 2 29 -9 33 -21 8 -20 55 2 91 19 32
102 82 136 82 11 0 29 -9 40 -20z m739 17 c-7 -2 -21 -2 -30 0 -10 3 -4 5 12
5 17 0 24 -2 18 -5z m275 -12 c3 -8 -1 -12 -9 -9 -7 2 -15 10 -17 17 -3 8 1
12 9 9 7 -2 15 -10 17 -17z m90 -63 c0 -64 -1 -68 -8 -33 -12 52 -12 118 -2
111 5 -3 9 -38 10 -78z m3911 0 c1 -10 -3 -18 -8 -18 -12 0 -91 76 -91 88 0
18 99 -52 99 -70z m-3751 55 c-9 -10 -22 -31 -31 -48 l-15 -29 2 47 c1 45 2
47 30 47 27 0 28 -1 14 -17z m-1168 -23 c0 -6 -9 -5 -20 2 -11 7 -20 16 -20
21 0 4 9 3 20 -3 11 -6 20 -15 20 -20z m950 9 c0 -6 -4 -7 -10 -4 -5 3 -10 11
-10 16 0 6 5 7 10 4 6 -3 10 -11 10 -16z m-297 -26 c9 -21 9 -27 -1 -31 -6 -2
-12 -13 -12 -24 0 -14 -6 -19 -22 -16 -19 2 -22 8 -20 32 4 36 19 66 33 66 5
0 15 -12 22 -27z m-98 0 c18 -42 9 -83 -18 -83 -7 0 -7 4 1 12 15 15 15 45 0
54 -7 4 -8 3 -4 -4 4 -7 1 -12 -6 -12 -9 0 -10 -2 -2 -8 9 -5 8 -11 -2 -20
-12 -11 -14 -9 -14 13 0 25 19 65 31 65 4 0 10 -8 14 -17z m-91 -19 c10 -4 16
-18 16 -36 0 -17 -4 -27 -10 -23 -5 3 -10 -2 -11 -12 0 -10 -3 -13 -6 -5 -2 6
-11 12 -19 12 -11 0 -13 7 -8 28 11 44 13 46 38 36z m-80 -30 c11 -28 7 -35
-14 -24 -23 12 -27 40 -6 40 8 0 17 -7 20 -16z m-102 -24 c3 -16 1 -35 -4 -42
-6 -10 -8 -10 -9 2 0 8 -4 4 -8 -9 -10 -36 -28 -36 -33 -1 -3 21 2 39 14 56
25 32 35 30 40 -6z m828 1 c0 -11 -6 -18 -15 -17 -20 3 -28 13 -20 25 11 18
35 12 35 -8z m3214 -6 c4 -10 -1 -15 -14 -15 -20 0 -26 11 -13 23 10 11 20 8
27 -8z m-3448 -21 c32 -4 44 -10 53 -30 6 -14 11 -27 11 -30 0 -3 -61 -3 -136
-1 -119 4 -138 7 -147 22 -17 30 16 44 102 43 42 0 94 -2 117 -4z m344 -26 c0
-7 -5 -20 -10 -28 -8 -12 -10 -9 -10 13 0 15 5 27 10 27 6 0 10 -6 10 -12z
m-1607 -33 c12 4 38 8 57 9 31 1 35 -2 37 -27 1 -17 -7 -37 -21 -52 -25 -26
-47 -35 -26 -10 6 8 9 18 6 23 -3 5 1 18 9 28 21 28 18 40 -5 19 -11 -10 -20
-14 -20 -9 0 5 -4 3 -9 -4 -4 -7 -24 -15 -43 -16 -20 -2 -46 -13 -59 -25 -12
-11 -27 -21 -31 -21 -5 0 -7 -4 -4 -8 3 -5 -6 -21 -19 -38 l-24 -29 -1 37 c0
46 8 68 26 68 8 0 14 7 14 16 0 11 6 14 20 9 20 -6 65 17 54 28 -3 3 -2 12 2
19 7 10 9 9 12 -5 3 -14 9 -17 25 -12z m835 -2 c3 -17 -2 -23 -16 -23 -18 0
-32 18 -32 42 0 21 45 3 48 -19z m4546 -3 c0 -32 16 -43 32 -22 11 15 15 12
33 -28 11 -25 21 -51 21 -58 0 -8 9 -25 20 -39 21 -27 26 -53 11 -53 -12 0
-91 87 -129 142 -39 56 -43 91 -10 86 17 -2 22 -10 22 -28z m-2857 -20 c42 10
78 1 47 -11 -10 -4 -32 -8 -47 -8 -16 -1 -26 -5 -22 -11 3 -5 -1 -10 -9 -10
-9 0 -16 5 -16 12 0 6 -7 4 -18 -5 -23 -21 -32 -21 -32 -3 0 8 9 18 20 21 11
3 20 11 20 18 0 8 3 8 11 0 7 -7 23 -8 46 -3z m-1107 -21 c0 -11 -4 -17 -10
-14 -5 3 -10 13 -10 21 0 8 5 14 10 14 6 0 10 -9 10 -21z m-3685 -44 c-4 -25
-10 -44 -12 -41 -3 3 -2 26 2 51 3 26 9 45 12 42 2 -3 1 -26 -2 -52z m2915 26
c0 -11 3 -27 7 -37 4 -12 2 -15 -8 -12 -8 3 -13 11 -11 17 1 6 -2 11 -8 11 -5
0 -10 9 -10 20 0 11 7 20 15 20 8 0 15 -9 15 -19z m1515 6 c11 -1 23 -6 27
-12 4 -5 18 -10 30 -11 54 -2 68 -5 68 -14 0 -5 -20 -8 -45 -6 -25 2 -45 -1
-45 -6 0 -5 -4 -6 -10 -3 -5 3 -10 1 -10 -5 0 -7 -8 -9 -19 -5 -11 3 -22 1
-26 -5 -5 -8 -12 -4 -22 9 -8 12 -12 25 -8 30 3 5 1 12 -5 16 -20 12 -9 24 18
19 15 -3 36 -6 47 -7z m2005 -37 c-18 -11 -22 -7 -14 14 5 13 10 14 18 6 8 -8
7 -13 -4 -20z m57 -6 c-3 -3 -12 -4 -19 -1 -8 3 -5 6 6 6 11 1 17 -2 13 -5z
m-7758 -71 c8 -32 18 -67 23 -78 9 -18 9 -18 -5 -5 -16 17 -47 103 -47 132 0
36 17 8 29 -49z m4159 42 c-3 -3 -9 2 -12 12 -6 14 -5 15 5 6 7 -7 10 -15 7
-18z m3962 15 c0 -5 -4 -10 -10 -10 -5 0 -10 5 -10 10 0 6 5 10 10 10 6 0 10
-4 10 -10z m-4525 -14 c44 -32 -9 -65 -115 -71 -76 -5 -110 2 -110 21 0 8 8
11 23 7 47 -11 144 -8 160 6 9 7 14 17 11 22 -7 12 -74 11 -74 -1 0 -5 -9 -10
-20 -10 -13 0 -20 7 -20 20 0 18 7 20 63 20 37 0 71 -6 82 -14z m3609 -2 c5
-14 4 -15 -9 -4 -17 14 -19 20 -6 20 5 0 12 -7 15 -16z m-4323 -99 l-9 -40 -1
45 c0 25 3 56 7 70 7 25 7 25 10 -5 2 -16 -1 -48 -7 -70z m2885 70 c-5 -20 -3
-25 13 -25 26 0 37 -18 16 -27 -10 -3 -21 0 -25 7 -4 7 -13 9 -20 5 -7 -4 -16
-1 -21 6 -8 12 -12 11 -24 -5 -8 -11 -20 -16 -30 -12 -23 8 -10 23 28 32 17 3
38 15 45 25 18 26 25 24 18 -6z m-4473 -100 c8 -16 25 -40 36 -52 32 -34 25
-40 -9 -7 -39 37 -70 104 -69 146 1 32 1 31 13 -12 7 -25 20 -58 29 -75z m780
-64 c-1 -2 -7 8 -13 23 -12 32 -13 80 -2 116 5 18 9 2 12 -55 3 -44 5 -82 3
-84z m4687 147 c0 -6 7 -20 17 -30 20 -23 10 -36 -12 -14 -19 18 -28 56 -14
56 5 0 9 -5 9 -12z m320 -22 c0 -2 -10 -2 -22 -1 -13 1 -24 9 -26 19 -4 17 -2
17 22 1 14 -10 26 -18 26 -19z m224 -8 c4 -17 2 -28 -4 -28 -5 0 -11 3 -11 8
-10 65 1 80 15 20z m-1868 7 c-4 -10 1 -15 14 -15 11 0 20 -5 20 -11 0 -6 9
-22 20 -36 12 -15 20 -20 20 -12 0 11 2 11 10 -1 5 -8 10 -30 10 -48 0 -18 4
-31 8 -28 12 7 36 -39 28 -53 -4 -6 -1 -11 7 -11 18 0 29 -24 20 -45 -3 -9 2
-24 11 -34 16 -17 14 -18 -40 -16 -40 2 -61 8 -74 21 -16 17 -57 118 -81 202
-6 17 -15 32 -21 32 -5 0 -7 7 -4 16 4 12 1 14 -14 9 -25 -8 -41 1 -34 20 4
10 14 13 29 9 13 -3 32 -1 42 5 26 15 36 13 29 -4z m1244 -1 c0 -8 -4 -12 -10
-9 -5 3 -10 10 -10 16 0 5 5 9 10 9 6 0 10 -7 10 -16z m289 2 c10 -12 8 -13
-8 -9 -12 3 -21 9 -21 14 0 14 16 11 29 -5z m497 -15 c-10 -16 -32 -13 -47 5
-12 15 -11 16 9 10 15 -5 22 -3 22 5 0 10 3 10 11 2 6 -6 8 -16 5 -22z m469
19 c3 -5 -1 -10 -9 -10 -9 0 -16 5 -16 10 0 6 4 10 9 10 6 0 13 -4 16 -10z
m-55 -15 c10 -12 10 -15 -4 -15 -9 0 -16 7 -16 15 0 8 2 15 4 15 2 0 9 -7 16
-15z m-52 -24 c3 -8 -1 -12 -9 -9 -7 2 -15 10 -17 17 -3 8 1 12 9 9 7 -2 15
-10 17 -17z m-298 -6 c0 -8 -4 -15 -10 -15 -5 0 -10 7 -10 15 0 8 5 15 10 15
6 0 10 -7 10 -15z m244 -16 c-8 -13 -24 -1 -24 18 0 13 3 13 15 3 8 -7 12 -16
9 -21z m-409 1 c3 -5 1 -10 -4 -10 -6 0 -11 5 -11 10 0 6 2 10 4 10 3 0 8 -4
11 -10z m349 -6 c3 -8 2 -12 -4 -9 -6 3 -10 10 -10 16 0 14 7 11 14 -7z m-399
-14 c-3 -5 -11 -10 -16 -10 -6 0 -7 5 -4 10 3 6 11 10 16 10 6 0 7 -4 4 -10z
m-7245 -55 l23 -40 -25 25 c-14 14 -29 36 -33 50 -9 32 4 18 35 -35z m6790 51
c0 -3 -4 -8 -10 -11 -5 -3 -10 -1 -10 4 0 6 5 11 10 11 6 0 10 -2 10 -4z m90
0 c0 -3 -4 -8 -10 -11 -5 -3 -10 -1 -10 4 0 6 5 11 10 11 6 0 10 -2 10 -4z
m-235 -16 c3 -5 2 -10 -4 -10 -5 0 -13 5 -16 10 -3 6 -2 10 4 10 5 0 13 -4 16
-10z m877 -12 c-7 -7 -12 -8 -12 -2 0 14 12 26 19 19 2 -3 -1 -11 -7 -17z
m-813 -29 c-22 -13 -31 -11 -17 5 7 8 17 12 22 9 4 -3 2 -9 -5 -14z m641 -9
c0 -5 -5 -10 -11 -10 -5 0 -7 5 -4 10 3 6 8 10 11 10 2 0 4 -4 4 -10z m-446
-25 c3 -8 12 -15 21 -15 8 0 15 -5 15 -10 0 -6 8 -5 20 2 11 7 20 18 20 25 0
20 14 15 40 -12 l24 -25 -25 0 c-13 1 -48 -2 -76 -6 -45 -6 -53 -4 -53 10 0 9
-4 16 -10 16 -5 0 -10 7 -10 15 0 8 6 15 14 15 8 0 16 -7 20 -15z m-4853 -32
c13 -16 12 -17 -3 -4 -10 7 -18 15 -18 17 0 8 8 3 21 -13z m2049 -4 c0 -6 -4
-7 -10 -4 -5 3 -10 11 -10 16 0 6 5 7 10 4 6 -3 10 -11 10 -16z m698 -19 c78
-12 142 -26 142 -30 0 -8 -227 -41 -270 -39 l-25 1 27 8 c14 4 63 11 107 15
45 4 83 11 86 15 4 7 -33 12 -214 33 -8 1 -16 8 -19 16 -3 9 0 12 9 9 8 -3 78
-16 157 -28z m-1991 -2 c-3 -8 -6 -5 -6 6 -1 11 2 17 5 13 3 -3 4 -12 1 -19z
m3043 3 c0 -11 -59 -36 -66 -28 -5 5 34 27 64 36 1 1 2 -3 2 -8z m-5670 -78
c3 -3 -14 4 -37 16 -23 11 -47 30 -53 41 -8 15 2 10 37 -16 26 -20 50 -39 53
-41z m1955 37 c3 -5 1 -10 -4 -10 -6 0 -11 5 -11 10 0 6 2 10 4 10 3 0 8 -4
11 -10z m690 0 c3 -5 1 -10 -4 -10 -6 0 -11 5 -11 10 0 6 2 10 4 10 3 0 8 -4
11 -10z m2945 2 c0 -9 -81 -45 -87 -38 -3 2 15 14 39 25 50 24 48 23 48 13z
m-3593 -18 c-3 -3 -12 -4 -19 -1 -8 3 -5 6 6 6 11 1 17 -2 13 -5z m703 -59 c0
-5 -11 2 -25 15 -14 13 -25 27 -25 31 0 5 11 -2 25 -15 14 -13 25 -27 25 -31z
m-2666 28 c4 -4 31 -15 59 -25 29 -9 43 -17 32 -17 -26 -1 -92 22 -107 37 -7
7 -8 12 -2 12 6 0 14 -3 18 -7z m446 -7 c0 -2 -7 -7 -16 -10 -8 -3 -12 -2 -9
4 6 10 25 14 25 6z m3817 -2 c-3 -3 -12 -4 -19 -1 -8 3 -5 6 6 6 11 1 17 -2
13 -5z m-413 -19 c7 -20 -3 -45 -19 -45 -20 0 -30 41 -14 51 20 12 26 11 33
-6z m2569 -10 c-3 -9 -8 -14 -10 -11 -3 3 -2 9 2 15 9 16 15 13 8 -4z m-47
-34 c-10 -11 -15 -25 -10 -32 5 -9 2 -10 -9 -6 -10 3 -17 2 -17 -3 0 -6 -4
-10 -9 -10 -5 0 2 21 16 46 18 32 29 42 36 35 7 -7 5 -16 -7 -30z m969 -63 c7
-27 10 -48 6 -48 -7 0 -42 120 -40 142 1 14 12 -17 34 -94z m-1040 62 c3 -5 1
-10 -4 -10 -6 0 -11 5 -11 10 0 6 2 10 4 10 3 0 8 -4 11 -10z m-3395 -11 c0
-11 -57 -12 -63 -1 -3 4 10 8 29 9 19 1 34 -3 34 -8z m3484 -43 c-6 -15 -24
-23 -24 -11 0 8 24 34 28 30 1 -1 0 -10 -4 -19z m796 -17 c0 -5 -4 -9 -10 -9
-5 0 -10 7 -10 16 0 8 5 12 10 9 6 -3 10 -10 10 -16z m-160 -9 c32 0 48 -27
27 -47 -11 -12 -18 -10 -40 13 -15 15 -27 34 -26 43 0 10 2 12 6 4 2 -7 17
-13 33 -13z m70 13 c0 -14 -19 -38 -25 -32 -8 8 5 39 16 39 5 0 9 -3 9 -7z
m-169 -21 c-5 -10 -18 -25 -27 -33 -16 -13 -16 -12 0 19 9 17 21 32 27 32 6 0
6 -6 0 -18z m-571 -12 c0 -21 -15 -27 -25 -10 -3 6 -1 10 5 10 6 0 8 5 5 10
-3 6 -1 10 4 10 6 0 11 -9 11 -20z m773 -4 c21 -17 22 -25 1 -22 -9 1 -20 10
-26 19 -11 20 0 22 25 3z m54 8 c-3 -3 -12 -4 -19 -1 -8 3 -5 6 6 6 11 1 17
-2 13 -5z m-2177 -41 c8 2 21 6 27 10 9 5 11 3 7 -6 -5 -14 -74 -22 -74 -8 0
13 13 22 20 12 3 -6 12 -9 20 -8z m1280 -9 c0 -8 5 -14 10 -14 6 0 10 -13 10
-30 0 -16 -5 -30 -10 -30 -6 0 -8 11 -4 25 4 18 1 27 -10 31 -9 3 -16 15 -16
26 0 10 5 16 10 13 6 -3 10 -13 10 -21z m27 4 c-3 -8 -6 -5 -6 6 -1 11 2 17 5
13 3 -3 4 -12 1 -19z m783 14 c0 -4 -6 -14 -12 -21 -11 -11 -10 -13 2 -9 17 6
75 -20 66 -30 -4 -3 -12 0 -18 6 -7 7 -21 12 -33 12 -30 0 -47 19 -32 36 13
15 27 18 27 6z m-4058 -27 c-4 -24 -3 -25 52 -25 53 0 56 1 56 25 0 20 5 25
25 25 20 0 25 -5 25 -25 0 -22 4 -25 38 -25 20 0 44 -5 52 -10 10 -7 -31 -10
-125 -10 -77 0 -146 4 -154 9 -20 13 -6 61 18 61 14 0 17 -6 13 -25z m4134
-12 c-7 -7 -26 7 -26 19 0 6 6 6 15 -2 9 -7 13 -15 11 -17z m-1982 -28 c-8
-19 -10 -19 -18 0 -3 9 0 15 9 15 9 0 12 -6 9 -15z m1996 6 c0 -6 -4 -13 -10
-16 -5 -3 -10 1 -10 9 0 9 5 16 10 16 6 0 10 -4 10 -9z m-345 -11 c4 -6 1 -17
-5 -26 -15 -18 -42 0 -33 22 6 16 29 19 38 4z m-485 -8 c0 -13 -12 -22 -22
-16 -10 6 -1 24 13 24 5 0 9 -4 9 -8z m-1460 -47 c-7 -9 -15 -13 -17 -11 -7 7
7 26 19 26 6 0 6 -6 -2 -15z"/>
<path d="M698 6498 c-8 -22 3 -38 27 -38 21 0 35 17 35 41 0 14 -57 11 -62 -3z"/>
<path d="M690 6426 c0 -2 -7 -40 -15 -83 -19 -102 -19 -103 10 -103 14 0 25 2
25 4 0 2 7 40 15 83 19 102 19 103 -10 103 -14 0 -25 -2 -25 -4z"/>
<path d="M790 6338 l16 -93 34 -3 c34 -2 36 -1 83 87 26 49 47 92 47 95 0 3
-11 6 -25 6 -21 0 -30 -11 -57 -64 -33 -67 -48 -75 -48 -27 0 16 -3 43 -6 60
-5 25 -11 31 -33 31 l-27 0 16 -92z"/>
<path d="M1576 6494 c-9 -22 1 -34 29 -34 21 0 35 17 35 41 0 16 -57 10 -64
-7z"/>
<path d="M1570 6426 c0 -2 -7 -40 -15 -83 -19 -102 -19 -103 10 -103 14 0 25
2 25 4 0 2 7 40 15 83 19 102 19 103 -10 103 -14 0 -25 -2 -25 -4z"/>
<path d="M3950 6495 c-17 -21 -1 -38 31 -33 16 2 25 11 27 26 3 18 -1 22 -21
22 -14 0 -30 -7 -37 -15z"/>
<path d="M3940 6428 c0 -2 -7 -41 -15 -88 -19 -107 -19 -100 10 -100 14 0 25
2 25 4 0 2 7 40 15 83 19 102 19 103 -10 103 -14 0 -25 -1 -25 -2z"/>
<path d="M4062 6414 c-29 -20 -52 -66 -52 -103 0 -35 39 -71 77 -71 32 0 80
26 93 50 9 18 8 20 -15 20 -14 0 -36 -7 -49 -16 -23 -14 -25 -14 -39 6 -29 41
22 115 56 81 14 -14 67 -15 67 -1 0 6 -9 19 -20 30 -24 24 -86 27 -118 4z"/>
<path d="M4263 6408 c-30 -33 -43 -63 -43 -97 0 -56 59 -88 111 -61 13 8 19 7
19 0 0 -6 12 -10 27 -8 26 3 28 7 44 96 l16 92 -28 0 c-16 0 -29 -5 -29 -12 0
-9 -3 -9 -12 0 -21 21 -82 15 -105 -10z m91 -34 c20 -20 20 -34 0 -62 -11 -16
-24 -22 -42 -20 -38 4 -44 58 -10 82 28 20 33 20 52 0z"/>
<path d="M4302 6358 c-30 -30 1 -74 33 -48 22 18 19 60 -3 60 -10 0 -23 -5
-30 -12z"/>
<path d="M4092 6358 c-25 -25 -6 -72 21 -50 7 6 30 12 51 14 51 4 61 28 12 28
-19 0 -38 5 -41 10 -8 14 -28 13 -43 -2z"/>
<path d="M1806 6448 c-5 -31 -10 -38 -18 -30 -7 7 -28 12 -48 12 -50 0 -91
-43 -97 -102 -4 -34 0 -48 17 -65 22 -25 59 -29 91 -13 13 8 19 7 19 0 0 -6
12 -10 27 -8 27 3 28 6 49 126 l21 122 -27 0 c-24 0 -28 -5 -34 -42z m-32 -74
c20 -20 20 -34 0 -62 -24 -34 -68 -27 -72 11 -4 30 21 67 44 67 7 0 20 -7 28
-16z"/>
<path d="M1722 6358 c-30 -30 1 -74 33 -48 22 18 19 60 -3 60 -10 0 -23 -5
-30 -12z"/>
<path d="M1913 6408 c-30 -33 -43 -63 -43 -97 0 -56 59 -88 111 -61 13 8 19 7
19 0 0 -6 12 -10 27 -8 26 3 28 7 44 96 l16 92 -28 0 c-16 0 -29 -5 -29 -12 0
-9 -3 -9 -12 0 -21 21 -82 15 -105 -10z m91 -34 c20 -20 20 -34 0 -62 -24 -34
-68 -27 -72 11 -4 30 21 67 44 67 7 0 20 -7 28 -16z"/>
<path d="M1952 6358 c-30 -30 1 -74 33 -48 22 18 19 60 -3 60 -10 0 -23 -5
-30 -12z"/>
<path d="M2276 6448 c-5 -31 -10 -38 -18 -30 -7 7 -28 12 -48 12 -50 0 -91
-43 -97 -103 -4 -36 -1 -49 16 -66 23 -23 52 -27 83 -10 15 8 22 8 28 -1 4 -6
18 -10 31 -8 22 3 25 12 45 126 l21 122 -27 0 c-24 0 -28 -5 -34 -42z m-32
-74 c20 -20 20 -34 0 -62 -24 -34 -68 -27 -72 11 -4 30 21 67 44 67 7 0 20 -7
28 -16z"/>
<path d="M2192 6358 c-30 -30 1 -74 33 -48 22 18 19 60 -3 60 -10 0 -23 -5
-30 -12z"/>
<path d="M4706 6448 c-5 -31 -10 -38 -18 -30 -7 7 -28 12 -48 12 -50 0 -91
-43 -97 -103 -4 -36 -1 -49 16 -66 23 -23 61 -27 92 -11 13 8 19 7 19 0 0 -6
12 -10 27 -8 27 3 28 6 49 126 l21 122 -27 0 c-24 0 -28 -5 -34 -42z m-32 -74
c20 -20 20 -34 0 -62 -11 -16 -24 -22 -42 -20 -38 4 -44 58 -10 82 28 20 33
20 52 0z"/>
<path d="M4622 6358 c-30 -30 1 -74 33 -48 22 18 19 60 -3 60 -10 0 -23 -5
-30 -12z"/>
<path d="M4822 6414 c-29 -20 -52 -66 -52 -103 0 -70 102 -93 159 -37 l26 26
-33 0 c-18 0 -41 -6 -52 -12 -16 -10 -23 -10 -36 4 -26 26 -7 38 62 38 l64 0
0 33 c0 20 -8 41 -18 50 -24 21 -90 22 -120 1z m86 -46 c3 -15 -4 -18 -37 -18
-43 0 -50 7 -29 28 18 18 62 11 66 -10z"/>
<path d="M4855 6370 c-3 -5 3 -10 14 -10 12 0 21 5 21 10 0 6 -6 10 -14 10 -8
0 -18 -4 -21 -10z"/>
<path d="M4848 6303 c7 -3 16 -2 19 1 4 3 -2 6 -13 5 -11 0 -14 -3 -6 -6z"/>
<path d="M5916 6448 c-5 -31 -10 -38 -18 -30 -7 7 -28 12 -48 12 -50 0 -91
-43 -97 -103 -4 -36 -1 -49 16 -66 23 -23 61 -27 92 -11 13 8 19 7 19 0 0 -6
12 -10 27 -8 27 3 28 6 49 126 l21 122 -27 0 c-24 0 -28 -5 -34 -42z m-32 -74
c20 -20 20 -34 0 -62 -11 -16 -24 -22 -42 -20 -38 4 -44 58 -10 82 28 20 33
20 52 0z"/>
<path d="M5832 6358 c-30 -30 1 -74 33 -48 22 18 19 60 -3 60 -10 0 -23 -5
-30 -12z"/>
<path d="M5550 6426 c0 -2 -7 -40 -15 -83 -19 -101 -19 -103 10 -103 20 0 25
6 30 38 16 95 45 131 81 101 16 -13 15 -47 -3 -116 -4 -19 -1 -23 20 -23 33 0
35 4 43 89 5 50 3 75 -6 86 -14 17 -62 20 -91 5 -13 -7 -19 -7 -19 0 0 5 -11
10 -25 10 -14 0 -25 -2 -25 -4z"/>
<path d="M5105 6458 c-6 -30 -35 -201 -35 -210 0 -5 11 -8 24 -8 21 0 26 6 33
43 8 40 11 42 48 48 56 7 81 24 94 60 15 42 14 46 -9 69 -16 16 -33 20 -85 20
-59 0 -65 -2 -70 -22z m113 -41 c5 -25 -16 -47 -44 -47 -20 0 -24 5 -24 28 0
16 3 32 7 36 14 13 58 1 61 -17z"/>
<path d="M5170 6410 c-9 -17 -7 -20 9 -20 23 0 35 26 16 34 -8 3 -19 -3 -25
-14z"/>
<path d="M5316 6401 c-39 -40 -47 -110 -17 -140 23 -23 61 -27 92 -11 13 8 19
7 19 0 0 -6 12 -10 27 -8 26 3 28 7 44 96 l16 92 -28 0 c-16 0 -29 -5 -29 -12
0 -9 -3 -9 -12 0 -23 23 -82 14 -112 -17z m98 -27 c20 -20 20 -34 0 -62 -11
-16 -24 -22 -42 -20 -38 4 -44 58 -10 82 28 20 33 20 52 0z"/>
<path d="M5362 6358 c-30 -30 1 -74 33 -48 22 18 19 60 -3 60 -10 0 -23 -5
-30 -12z"/>
<path d="M216 6458 c-32 -153 -33 -162 -1 -193 28 -29 71 -33 114 -11 44 23
53 41 71 136 l17 90 -27 0 c-25 0 -27 -4 -39 -72 -15 -87 -33 -118 -66 -118
-37 0 -44 24 -29 104 18 90 18 86 -11 86 -17 0 -26 -6 -29 -22z"/>
<path d="M2467 6363 l-65 -118 26 -3 c15 -2 28 1 30 7 9 28 36 42 76 39 34 -2
42 -7 44 -25 3 -18 10 -23 34 -23 26 0 30 3 25 22 -4 12 -14 66 -23 120 l-17
98 -33 0 c-31 0 -35 -5 -97 -117z m96 10 c4 -20 4 -40 1 -45 -7 -11 -54 -10
-54 2 0 15 33 80 41 80 3 0 9 -16 12 -37z"/>
<path d="M2537 6366 c-4 -10 -5 -21 -2 -24 9 -9 17 6 13 25 -3 17 -4 17 -11
-1z"/>
<path d="M8917 6423 c-12 -11 -8 -23 8 -23 8 0 15 7 15 15 0 16 -12 20 -23 8z"/>
<path d="M8595 6380 c3 -5 8 -10 11 -10 2 0 4 5 4 10 0 6 -5 10 -11 10 -5 0
-7 -4 -4 -10z"/>
<path d="M460 6426 c0 -2 -7 -40 -15 -83 -19 -101 -19 -103 10 -103 20 0 25 6
30 38 16 95 45 131 81 101 16 -13 15 -47 -3 -116 -4 -19 -1 -23 20 -23 33 0
35 4 43 89 5 50 3 75 -6 86 -14 17 -62 20 -91 5 -13 -7 -19 -7 -19 0 0 5 -11
10 -25 10 -14 0 -25 -2 -25 -4z"/>
<path d="M1032 6414 c-29 -20 -52 -66 -52 -103 0 -70 102 -93 159 -37 l26 26
-33 0 c-18 0 -41 -6 -52 -12 -16 -10 -23 -10 -36 4 -26 26 -7 38 62 38 l64 0
0 33 c0 20 -8 41 -18 50 -24 21 -90 22 -120 1z m86 -46 c3 -15 -4 -18 -37 -18
-43 0 -50 7 -29 28 18 18 62 11 66 -10z"/>
<path d="M1065 6370 c-3 -5 3 -10 14 -10 12 0 21 5 21 10 0 6 -6 10 -14 10 -8
0 -18 -4 -21 -10z"/>
<path d="M1220 6426 c0 -2 -7 -40 -15 -83 -19 -101 -19 -103 9 -103 21 0 25 7
37 58 12 49 19 59 46 72 22 10 33 22 33 38 0 26 -8 27 -38 6 -20 -14 -22 -14
-22 0 0 10 -9 16 -25 16 -14 0 -25 -2 -25 -4z"/>
<path d="M1370 6410 c-34 -34 -24 -61 32 -84 20 -9 39 -20 43 -26 10 -16 -25
-25 -46 -12 -47 30 -82 -1 -37 -32 40 -28 121 -13 133 24 9 30 -6 51 -51 71
-24 10 -44 22 -44 28 0 17 33 21 50 6 24 -21 50 -19 50 5 0 41 -94 56 -130 20z"/>
<path d="M1420 6376 c0 -2 7 -7 16 -10 8 -3 12 -2 9 4 -6 10 -25 14 -25 6z"/>
<path d="M1058 6303 c7 -3 16 -2 19 1 4 3 -2 6 -13 5 -11 0 -14 -3 -6 -6z"/>
<path d="M1405 6300 c3 -5 11 -10 16 -10 6 0 7 5 4 10 -3 6 -11 10 -16 10 -6
0 -7 -4 -4 -10z"/>
<path d="M2710 6426 c0 -2 -7 -40 -15 -83 -19 -101 -19 -103 9 -103 19 0 26 7
30 30 3 17 9 43 12 59 7 40 40 69 62 54 18 -11 21 -44 8 -106 -7 -38 -7 -38
21 -35 21 2 29 9 31 28 11 87 39 128 77 113 15 -5 16 -16 11 -75 -7 -67 -7
-68 17 -68 21 0 25 6 35 64 7 35 12 70 12 79 0 42 -73 63 -117 32 -18 -13 -22
-13 -33 0 -14 17 -63 20 -91 5 -13 -7 -19 -7 -19 0 0 5 -11 10 -25 10 -14 0
-25 -2 -25 -4z"/>
<path d="M3093 6408 c-47 -53 -57 -114 -23 -148 22 -22 70 -26 88 -8 10 10 15
10 21 0 5 -8 19 -12 32 -10 21 3 25 12 40 96 l16 92 -28 0 c-16 0 -29 -5 -29
-12 0 -9 -3 -9 -12 0 -21 21 -82 15 -105 -10z m91 -34 c20 -20 20 -34 0 -62
-11 -16 -24 -22 -42 -20 -38 4 -44 58 -10 82 28 20 33 20 52 0z"/>
<path d="M3132 6358 c-30 -30 1 -74 33 -48 22 18 19 60 -3 60 -10 0 -23 -5
-30 -12z"/>
<path d="M3297 6410 c-5 -18 0 -20 36 -20 l41 0 -52 -53 c-31 -32 -52 -61 -52
-75 0 -21 4 -22 70 -22 39 0 70 4 70 9 0 5 3 16 6 25 5 13 -2 16 -37 16 l-43
0 52 53 c73 74 70 87 -17 87 -60 0 -69 -2 -74 -20z"/>
<path d="M3270 6369 c0 -13 -3 -35 -7 -49 -5 -24 -4 -23 31 10 31 29 34 36 19
39 -10 2 -24 8 -30 13 -10 8 -13 4 -13 -13z"/>
<path d="M3500 6403 c-45 -40 -52 -102 -17 -137 83 -83 228 46 156 138 -30 38
-96 37 -139 -1z m84 -19 c19 -7 22 -64 4 -82 -18 -18 -56 -15 -66 6 -11 20 -6
40 16 65 16 19 22 20 46 11z"/>
<path d="M3542 6358 c-17 -17 -15 -48 4 -55 19 -7 44 21 44 49 0 21 -30 24
-48 6z"/>
<path d="M3710 6426 c0 -2 -7 -40 -15 -83 -19 -101 -19 -103 10 -103 20 0 25
6 30 38 16 95 45 131 81 101 16 -13 15 -47 -3 -116 -4 -19 -1 -23 20 -23 33 0
35 4 43 89 5 50 3 75 -6 86 -14 17 -62 20 -91 5 -13 -7 -19 -7 -19 0 0 5 -11
10 -25 10 -14 0 -25 -2 -25 -4z"/>
<path d="M6030 6403 c-45 -40 -52 -102 -17 -137 83 -83 228 46 156 138 -30 38
-96 37 -139 -1z m84 -19 c19 -7 22 -64 4 -82 -18 -18 -56 -15 -66 6 -11 20 -6
40 16 65 16 19 22 20 46 11z"/>
<path d="M6070 6355 c-16 -19 -9 -49 12 -53 19 -4 42 33 34 54 -7 18 -30 18
-46 -1z"/>
<path d="M8490 6316 c0 -2 7 -9 15 -16 12 -10 15 -10 15 4 0 9 -7 16 -15 16
-8 0 -15 -2 -15 -4z"/>
<path d="M8850 6213 c0 -11 6 -25 13 -32 7 -7 0 -6 -18 3 -39 21 -66 20 -104
-1 -35 -20 -38 -28 -14 -37 10 -4 28 2 46 14 26 20 30 20 51 6 30 -19 60 -1
54 34 -4 28 -28 40 -28 13z m-80 -37 c0 -2 -7 -7 -16 -10 -8 -3 -12 -2 -9 4 6
10 25 14 25 6z"/>
<path d="M8666 6111 c-8 -12 21 -34 34 -26 17 11 11 35 -9 35 -11 0 -22 -4
-25 -9z"/>
<path d="M8861 5961 c-15 -28 -10 -151 6 -151 10 0 13 23 13 85 0 47 -2 85 -5
85 -2 0 -9 -9 -14 -19z"/>
<path d="M8765 5950 c-4 -6 -12 -7 -18 -4 -8 5 -8 2 1 -7 10 -11 15 -10 29 4
10 10 12 17 6 17 -7 0 -15 -5 -18 -10z"/>
<path d="M8930 5944 c0 -8 5 -12 10 -9 6 3 10 10 10 16 0 5 -4 9 -10 9 -5 0
-10 -7 -10 -16z"/>
<path d="M8770 5790 c0 -5 5 -10 10 -10 6 0 10 5 10 10 0 6 -4 10 -10 10 -5 0
-10 -4 -10 -10z"/>
<path d="M8820 6270 c0 -6 28 -10 65 -10 37 0 65 4 65 10 0 6 -28 10 -65 10
-37 0 -65 -4 -65 -10z"/>
<path d="M9145 6230 c-3 -5 -1 -10 4 -10 6 0 11 5 11 10 0 6 -2 10 -4 10 -3 0
-8 -4 -11 -10z"/>
<path d="M8400 6181 c0 -12 28 -22 35 -12 3 5 -2 12 -11 15 -21 8 -24 8 -24
-3z"/>
<path d="M2334 5860 c-14 -21 -24 -44 -22 -49 1 -6 16 12 31 39 34 60 28 66
-9 10z"/>
<path d="M9196 6130 c-15 -5 -16 -9 -7 -14 7 -5 18 -3 24 3 14 14 6 20 -17 11z"/>
<path d="M1192 6097 c-17 -29 -34 -61 -38 -72 -12 -36 54 36 71 77 23 57 2 53
-33 -5z"/>
<path d="M915 5960 c-3 -5 -1 -10 4 -10 6 0 11 5 11 10 0 6 -2 10 -4 10 -3 0
-8 -4 -11 -10z"/>
<path d="M1077 5952 c-18 -20 -23 -42 -9 -42 18 0 46 40 36 50 -7 7 -16 4 -27
-8z"/>
<path d="M1188 5953 c-22 -24 -23 -43 -3 -43 18 0 28 21 23 46 -3 14 -5 14
-20 -3z"/>
<path d="M802 6090 c-18 -30 -32 -59 -32 -64 0 -17 32 18 51 57 32 62 16 68
-19 7z"/>
<path d="M750 5935 l-23 -25 26 0 c23 0 47 23 47 44 0 15 -29 4 -50 -19z"/>
<path d="M2852 5948 c-18 -18 -15 -40 6 -36 9 2 18 13 20 26 4 24 -7 29 -26
10z"/>
<path d="M3080 5939 c-7 -11 -9 -24 -5 -27 9 -9 40 13 43 32 5 23 -25 20 -38
-5z"/>
<path d="M1572 5948 c-14 -14 -16 -38 -4 -38 10 0 42 33 42 43 0 11 -25 8 -38
-5z"/>
<path d="M1985 5960 c-3 -5 -1 -10 4 -10 6 0 11 5 11 10 0 6 -2 10 -4 10 -3 0
-8 -4 -11 -10z"/>
<path d="M2140 5941 c-12 -24 -13 -31 -1 -31 12 0 41 29 41 41 0 17 -29 9 -40
-10z"/>
<path d="M3332 5948 c-17 -17 -15 -40 4 -36 21 4 39 48 21 48 -7 0 -18 -5 -25
-12z"/>
<path d="M3680 5939 c-7 -11 -9 -23 -6 -26 10 -10 33 5 39 26 7 28 -19 28 -33
0z"/>
<path d="M9210 5696 c0 -9 30 -14 35 -6 4 6 -3 10 -14 10 -12 0 -21 -2 -21 -4z"/>
<path d="M8858 5623 c6 -2 18 -2 25 0 6 3 1 5 -13 5 -14 0 -19 -2 -12 -5z"/>
<path d="M8879 5613 c-46 -5 -94 -46 -83 -70 7 -16 8 -16 11 4 2 12 11 24 19
27 9 3 12 1 9 -4 -4 -6 28 -10 85 -10 67 0 91 3 88 12 -3 7 -26 17 -52 23 -26
5 -44 13 -40 18 4 4 5 6 3 5 -2 -1 -20 -3 -40 -5z"/>
<path d="M9030 5609 c0 -6 7 -8 16 -5 13 5 15 1 12 -19 -4 -20 -1 -25 14 -25
17 0 18 2 3 30 -15 29 -45 42 -45 19z"/>
<path d="M8998 5603 c7 -3 16 -2 19 1 4 3 -2 6 -13 5 -11 0 -14 -3 -6 -6z"/>
<path d="M9200 5615 c0 -8 6 -15 14 -15 22 0 28 17 10 24 -22 9 -24 8 -24 -9z"/>
<path d="M8860 5460 c0 -5 7 -7 15 -4 8 4 15 8 15 10 0 2 -7 4 -15 4 -8 0 -15
-4 -15 -10z"/>
<path d="M8525 5369 c-4 -6 -4 -13 -1 -16 8 -8 36 5 36 17 0 13 -27 13 -35 -1z"/>
<path d="M8575 5310 c3 -5 11 -10 16 -10 6 0 7 5 4 10 -3 6 -11 10 -16 10 -6
0 -7 -4 -4 -10z"/>
<path d="M8914 5299 c-10 -17 13 -36 27 -22 12 12 4 33 -11 33 -5 0 -12 -5
-16 -11z"/>
<path d="M5240 5075 l0 -95 -521 0 c-461 0 -525 -2 -555 -16 -52 -25 -64 -57
-64 -175 l0 -101 34 -34 34 -34 536 0 536 0 0 -95 c0 -58 4 -95 10 -95 11 0
449 327 488 365 l23 22 -95 71 c-152 114 -397 282 -412 282 -11 0 -14 -21 -14
-95z"/>
<path d="M6924 4993 c-6 -5 -14 -26 -18 -48 -4 -22 -9 -52 -12 -67 -5 -25 -3
-28 24 -28 90 0 156 77 105 123 -21 18 -83 31 -99 20z"/>
<path d="M7483 4867 l-42 -92 46 -3 c25 -2 47 -1 50 1 2 3 1 46 -4 96 l-8 91
-42 -93z"/>
<path d="M5740 3860 c-13 -8 -12 -10 3 -10 9 0 17 5 17 10 0 12 -1 12 -20 0z"/>
<path d="M5602 3788 c5 -15 28 -23 28 -10 0 5 -7 13 -16 16 -10 4 -14 1 -12
-6z"/>
<path d="M5534 3744 c10 -40 26 -58 40 -44 15 15 26 12 26 -6 0 -8 -4 -12 -10
-9 -5 3 -10 1 -10 -5 0 -7 -7 -10 -15 -6 -9 3 -15 0 -15 -9 0 -8 -7 -15 -16
-15 -10 0 -14 -6 -11 -14 3 -8 1 -17 -6 -19 -8 -3 -9 -8 -2 -15 16 -17 64 -2
71 22 7 20 8 20 15 -4 4 -15 7 -18 8 -8 1 10 7 15 15 12 18 -7 31 72 15 92
-17 21 -2 31 22 15 24 -14 36 -9 16 7 -7 6 -39 14 -72 17 -33 4 -64 9 -69 12
-5 4 -6 -6 -2 -23z"/>
<path d="M5660 3641 c0 -10 6 -24 13 -30 11 -8 13 -6 11 12 -1 12 -3 25 -3 30
-2 16 -21 6 -21 -12z"/>
<path d="M5542 3528 c-14 -14 -16 -28 -3 -28 9 0 24 30 18 36 -2 2 -9 -2 -15
-8z"/>
<path d="M5546 3403 c-4 -9 -2 -21 4 -27 7 -7 10 -2 10 17 0 31 -5 34 -14 10z"/>
<path d="M6768 3303 c-21 -8 -38 -21 -38 -29 0 -18 14 -18 29 0 7 8 27 17 47
20 19 4 32 11 29 17 -8 12 -23 11 -67 -8z"/>
<path d="M6835 3200 c-49 -18 -72 -40 -41 -40 36 0 109 42 95 54 -2 2 -26 -5
-54 -14z"/>
<path d="M6878 2904 c-4 -3 -12 -6 -20 -7 -23 -4 -24 -20 -1 -23 12 -2 24 3
27 13 7 17 3 27 -6 17z"/>
<path d="M8200 2497 c0 -47 6 -76 19 -101 11 -19 26 -62 32 -95 8 -37 18 -61
26 -61 9 0 11 5 4 18 -17 31 -40 126 -51 207 -14 103 -30 121 -30 32z"/>
<path d="M8184 2385 c1 -19 4 -35 7 -35 10 0 21 49 14 60 -12 20 -21 9 -21
-25z"/>
<path d="M7615 2320 c3 -5 8 -10 11 -10 2 0 4 5 4 10 0 6 -5 10 -11 10 -5 0
-7 -4 -4 -10z"/>
<path d="M8300 2260 c0 -5 5 -10 10 -10 6 0 10 5 10 10 0 6 -4 10 -10 10 -5 0
-10 -4 -10 -10z"/>
<path d="M8280 2200 c0 -11 4 -20 9 -20 5 0 7 9 4 20 -3 11 -7 20 -9 20 -2 0
-4 -9 -4 -20z"/>
<path d="M8283 2153 c2 -10 9 -38 16 -62 13 -45 6 -60 -26 -61 -7 0 -13 -4
-13 -10 0 -5 -9 -10 -19 -10 -10 0 -29 -9 -42 -20 l-24 -21 33 16 c17 8 32 13
32 10 0 -3 18 6 39 19 21 14 41 23 43 20 3 -2 11 2 18 11 10 12 10 15 -3 15
-17 0 -22 12 -33 73 -3 20 -10 37 -15 37 -5 0 -7 -8 -6 -17z"/>
<path d="M8332 2150 c0 -14 2 -19 5 -12 2 6 2 18 0 25 -3 6 -5 1 -5 -13z"/>
<path d="M8530 2132 c0 -8 -9 -12 -22 -10 -16 2 -23 -4 -29 -25 l-7 -27 53 1
c58 2 59 5 21 54 -9 12 -15 15 -16 7z"/>
<path d="M8362 2069 c2 -6 8 -10 13 -10 5 0 11 4 13 10 2 6 -4 11 -13 11 -9 0
-15 -5 -13 -11z"/>
<path d="M7640 1910 c0 -5 4 -10 9 -10 6 0 13 5 16 10 3 6 -1 10 -9 10 -9 0
-16 -4 -16 -10z"/>
<path d="M7543 1806 c4 -10 1 -13 -9 -9 -10 4 -12 0 -8 -11 3 -9 10 -16 14
-16 5 0 10 -6 13 -12 2 -7 3 -5 1 5 -1 11 6 22 19 27 17 7 18 9 5 9 -10 1 -18
6 -18 11 0 6 -5 10 -11 10 -6 0 -9 -7 -6 -14z"/>
<path d="M7485 1800 c-5 -9 -4 -11 3 -6 7 4 12 1 12 -8 0 -8 -5 -16 -11 -18
-7 -2 -7 -11 0 -28 l10 -25 0 27 c1 14 6 28 11 30 7 2 6 10 -3 22 -11 15 -16
16 -22 6z"/>
<path d="M7351 1753 c0 -5 4 -17 9 -28 8 -18 9 -17 9 8 1 15 -3 27 -9 27 -5 0
-10 -3 -9 -7z"/>
<path d="M7450 1683 c0 -13 5 -23 10 -23 6 0 10 -9 10 -19 0 -11 5 -23 10 -26
17 -10 11 23 -10 57 -18 29 -20 30 -20 11z"/>
<path d="M6100 1543 c-46 -15 -119 -55 -124 -69 -10 -25 -7 -59 6 -72 18 -18
69 -16 62 3 -4 8 -1 15 4 15 6 0 21 14 33 32 l23 31 -28 -7 c-41 -10 -31 24
11 38 39 13 51 41 13 29z"/>
<path d="M6247 1531 c-2 -10 -21 -27 -41 -36 -20 -10 -36 -20 -36 -24 0 -18
-73 -91 -91 -91 -22 0 -25 -13 -6 -29 11 -8 31 7 93 69 55 55 90 82 112 86 35
7 39 13 20 32 -18 18 -45 14 -51 -7z"/>
<path d="M6316 1486 c3 -9 -5 -20 -23 -30 -28 -15 -28 -15 -4 -16 14 0 32 -7
42 -15 11 -11 25 -14 44 -9 l27 7 -42 38 c-47 43 -52 46 -44 25z"/>
<path d="M6626 1425 c4 -8 10 -15 15 -15 4 0 6 7 3 15 -4 8 -10 15 -15 15 -4
0 -6 -7 -3 -15z"/>
<path d="M6231 1401 c-12 -16 -30 -49 -41 -73 -11 -24 -20 -37 -20 -30 0 6 -8
12 -18 12 -10 0 -23 5 -30 12 -6 6 -14 9 -18 5 -6 -6 17 -30 69 -73 46 -38
233 -41 245 -5 3 10 0 12 -11 8 -9 -3 -32 -9 -51 -12 -31 -6 -39 -3 -66 24
-18 17 -38 31 -46 31 -26 0 -28 31 -5 77 26 54 22 66 -8 24z"/>
<path d="M6320 1380 c0 -5 5 -10 10 -10 6 0 10 5 10 10 0 6 -4 10 -10 10 -5 0
-10 -4 -10 -10z"/>
<path d="M5790 1299 c0 -5 5 -7 10 -4 6 3 10 8 10 11 0 2 -4 4 -10 4 -5 0 -10
-5 -10 -11z"/>
<path d="M5582 990 c0 -14 2 -19 5 -12 2 6 2 18 0 25 -3 6 -5 1 -5 -13z"/>
<path d="M5564 917 c3 -10 6 -27 6 -38 0 -10 5 -19 10 -19 15 0 12 34 -6 56
-14 17 -15 17 -10 1z"/>
<path d="M5610 699 c0 -5 5 -7 10 -4 6 3 10 8 10 11 0 2 -4 4 -10 4 -5 0 -10
-5 -10 -11z"/>
<path d="M6455 2770 c3 -5 8 -10 11 -10 2 0 4 5 4 10 0 6 -5 10 -11 10 -5 0
-7 -4 -4 -10z"/>
<path d="M6496 2685 c4 -8 8 -15 10 -15 2 0 4 7 4 15 0 8 -4 15 -10 15 -5 0
-7 -7 -4 -15z"/>
<path d="M8381 1958 c12 -23 15 -22 46 2 l25 20 -40 -3 c-35 -2 -39 -4 -31
-19z"/>
<path d="M8582 1688 c2 -13 11 -24 20 -26 14 -3 15 0 5 22 -15 32 -30 34 -25
4z"/>
<path d="M6980 1699 c0 -6 -7 -8 -17 -4 -15 5 -16 4 -5 -6 10 -11 15 -10 29 4
11 11 13 17 5 17 -7 0 -12 -5 -12 -11z"/>
<path d="M7017 1694 c3 -7 9 -14 14 -14 14 0 10 17 -5 23 -10 4 -13 1 -9 -9z"/>
<path d="M6920 1620 c0 -5 5 -10 11 -10 5 0 7 5 4 10 -3 6 -8 10 -11 10 -2 0
-4 -4 -4 -10z"/>
<path d="M6958 1612 c-3 -11 0 -19 8 -19 8 0 14 9 14 19 0 10 -4 18 -9 18 -5
0 -11 -8 -13 -18z"/>
<path d="M7786 1825 c-3 -8 -1 -15 3 -15 5 0 11 7 15 15 3 8 1 15 -3 15 -5 0
-11 -7 -15 -15z"/>
<path d="M3770 1095 c0 -9 -7 -28 -16 -43 -15 -25 -15 -25 0 -8 9 11 16 16 16
11 0 -5 11 2 25 15 14 13 25 27 25 32 0 4 -11 8 -25 8 -16 0 -25 -6 -25 -15z"/>
<path d="M4205 831 c-6 -11 9 -23 19 -14 9 9 7 23 -3 23 -6 0 -12 -4 -16 -9z"/>
<path d="M4011 604 c0 -11 3 -14 6 -6 3 7 2 16 -1 19 -3 4 -6 -2 -5 -13z"/>
<path d="M4796 994 c-9 -24 -7 -36 4 -29 6 4 8 10 5 15 -3 4 0 10 7 12 8 3 9
6 1 11 -6 4 -14 0 -17 -9z"/>
<path d="M4880 900 c0 -5 16 -10 36 -10 21 0 33 4 29 10 -3 6 -19 10 -36 10
-16 0 -29 -4 -29 -10z"/>
<path d="M4992 898 c3 -7 22 -14 42 -16 28 -2 37 0 34 10 -3 7 -22 14 -42 16
-28 2 -37 0 -34 -10z"/>
<path d="M7570 175 c0 -8 5 -15 10 -15 6 0 10 7 10 15 0 8 -4 15 -10 15 -5 0
-10 -7 -10 -15z"/>
<path d="M6820 671 c0 -5 5 -13 10 -16 6 -3 10 -2 10 4 0 5 -4 13 -10 16 -5 3
-10 2 -10 -4z"/>
<path d="M7080 456 c0 -8 5 -18 10 -21 6 -3 10 3 10 14 0 12 -4 21 -10 21 -5
0 -10 -6 -10 -14z"/>
<path d="M6560 439 c0 -5 5 -7 10 -4 6 3 10 8 10 11 0 2 -4 4 -10 4 -5 0 -10
-5 -10 -11z"/>
<path d="M6630 434 c0 -8 5 -12 10 -9 6 4 8 11 5 16 -9 14 -15 11 -15 -7z"/>
<path d="M7070 410 c0 -5 5 -10 10 -10 6 0 10 5 10 10 0 6 -4 10 -10 10 -5 0
-10 -4 -10 -10z"/>
<path d="M6655 374 c-13 -10 -15 -14 -4 -14 20 0 43 16 32 23 -4 3 -17 -1 -28
-9z"/>
<path d="M4540 231 c0 -6 4 -13 10 -16 6 -3 7 1 4 9 -7 18 -14 21 -14 7z"/>
<path d="M5690 150 c0 -5 5 -10 10 -10 6 0 10 5 10 10 0 6 -4 10 -10 10 -5 0
-10 -4 -10 -10z"/>
<path d="M6340 69 c0 -5 5 -7 10 -4 6 3 10 8 10 11 0 2 -4 4 -10 4 -5 0 -10
-5 -10 -11z"/>
<path d="M6150 10 c0 -5 19 -10 42 -10 49 0 47 5 -4 14 -24 4 -38 3 -38 -4z"/>
<path d="M6360 10 l-65 -7 78 -1 c50 -1 76 2 72 8 -3 6 -9 9 -13 8 -4 -1 -36
-4 -72 -8z"/>
</g>
</svg>
